<svg width="40" height="40" viewBox="0 0 40 40" fill="none" xmlns="http://www.w3.org/2000/svg">
<g id="Comercial/Box-search">
<g id="Icon">
<path fill-rule="evenodd" clip-rule="evenodd" d="M33.6833 8.73336L23.9333 3.33336C22.0046 2.26551 19.6621 2.26551 17.7333 3.33336L7.96666 8.73336C5.92246 9.84107 4.64464 11.975 4.63332 14.3V24.8C4.64043 25.8329 4.89172 26.8495 5.36666 27.7667L6.09999 28.9334C5.9265 29.5063 5.83668 30.1014 5.83332 30.7C5.83908 31.8771 6.16767 33.0301 6.78332 34.0334L4.39999 36.6667C3.91257 37.1547 3.91257 37.9453 4.39999 38.4334C4.62834 38.6521 4.9338 38.7719 5.24999 38.7667C5.61912 38.766 5.97057 38.6085 6.21666 38.3334L8.49999 35.9334C11.0306 37.8951 14.6375 37.6138 16.8333 35.2834L17.7667 35.8C19.6955 36.8903 22.0545 36.8903 23.9833 35.8L33.7333 30.3834C35.7776 29.2674 37.0542 27.129 37.0667 24.8V14.3C37.0454 11.9643 35.7469 9.82779 33.6833 8.73336ZM12.2667 34.7167C10.1441 34.58 8.49246 32.8186 8.49246 30.6917C8.49246 28.5648 10.1441 26.8034 12.2667 26.6667C14.3892 26.8034 16.0409 28.5648 16.0409 30.6917C16.0409 32.8186 14.3892 34.58 12.2667 34.7167ZM32.4667 28.1334C33.6815 27.4599 34.4441 26.1889 34.4667 24.8V14.25C34.4441 12.8612 33.6815 11.5902 32.4667 10.9167L22.7167 5.50003C21.5434 4.83435 20.1066 4.83435 18.9333 5.50003L9.18332 10.9667C7.96849 11.6402 7.20587 12.9112 7.18332 14.3V24.8C7.19045 25.3355 7.30968 25.8635 7.53332 26.35C8.72191 24.973 10.4477 24.177 12.2667 24.1667C14.3963 24.2349 16.3597 25.3349 17.5302 27.1154C18.7006 28.8959 18.9318 31.1345 18.15 33.1167L18.9333 33.55C20.1066 34.2157 21.5434 34.2157 22.7167 33.55L32.4667 28.1334Z" fill="#D66424"/>
<path d="M28.9167 12.7834L21.6667 16.8334C21.151 17.1311 20.5157 17.1311 20 16.8334L12.7333 12.7834C12.1392 12.4603 11.3957 12.6759 11.0667 13.2667C10.7531 13.8618 10.9667 14.5984 11.55 14.9334L18.8333 18.9834C19.0872 19.106 19.3489 19.2118 19.6167 19.3V28.8C19.6167 29.4904 20.1763 30.05 20.8667 30.05C21.557 30.05 22.1167 29.4904 22.1167 28.8V19.3167C22.3802 19.2385 22.6367 19.1382 22.8833 19.0167L30.1333 15C30.7203 14.6565 30.9249 13.9068 30.5939 13.3127C30.2628 12.7186 29.5176 12.4982 28.9167 12.8167V12.7834Z" fill="#D66424"/>
</g>
</g>
</svg>
