<svg width="40" height="40" viewBox="0 0 40 40" fill="none" xmlns="http://www.w3.org/2000/svg">
<g id="Interface essential/Close">
<path id="Icon" d="M32.8647 30.651L22.2084 20.0006L32.8647 9.42852C33.3988 8.81 33.3699 7.88181 32.7984 7.2982C32.2269 6.71459 31.3055 6.67232 30.6836 7.20118L19.9962 17.6948L9.49565 7.12275C8.888 6.51458 7.90661 6.51458 7.29896 7.12275C7.00402 7.41727 6.83812 7.81819 6.83812 8.23642C6.83812 8.65466 7.00402 9.05557 7.29896 9.35009L17.7839 19.9065L7.12758 30.4628C6.83265 30.7573 6.66675 31.1583 6.66675 31.5765C6.66675 31.9947 6.83265 32.3956 7.12758 32.6902C7.4216 32.9838 7.81962 33.1475 8.23372 33.145C8.64023 33.1475 9.03159 32.9899 9.32428 32.7058L19.9962 22.1181L30.6836 32.8784C30.9776 33.172 31.3757 33.3357 31.7898 33.3333C32.1985 33.3315 32.5901 33.1682 32.8803 32.8784C33.1732 32.5818 33.3363 32.1797 33.3334 31.7614C33.3305 31.3432 33.1617 30.9435 32.8647 30.651Z" fill="#E05151"/>
</g>
</svg>
