<svg width="259" height="442" viewBox="0 0 259 442" fill="none" xmlns="http://www.w3.org/2000/svg">
<g clip-path="url(#clip0_28_128)">
<path d="M52.5845 47.2696L44.8524 13.6668L42.3304 2.72001C42.1212 1.81695 41.5543 1.03228 40.7543 0.538585C39.9543 0.0448917 38.9869 -0.117386 38.0648 0.087455L34.2558 0.9311L3.71144 7.68014C3.25545 7.78076 2.82416 7.96838 2.44225 8.23231C2.06033 8.49623 1.73526 8.83127 1.48562 9.21828C1.23598 9.60529 1.06667 10.0367 0.987347 10.4878C0.908025 10.9389 0.920255 11.4009 1.02334 11.8474C-0.616444 26.799 2.62169 40.5918 9.64802 53.5003C10.167 54.4659 10.7171 55.4315 11.2879 56.3971C11.4389 57.0648 11.7894 57.6733 12.2947 58.1453C12.7199 58.5433 13.239 58.8322 13.8057 58.9864C14.3724 59.1407 14.9692 59.1555 15.5431 59.0296L19.5493 58.1453L22.0194 57.5965L49.8965 51.437C50.8171 51.2333 51.6175 50.6798 52.1215 49.8983C52.6256 49.1169 52.7921 48.1713 52.5845 47.2696Z" fill="#E6E6E6"/>
<path d="M49.3879 45.3994L42.019 13.433L40.2547 5.759C40.0603 4.91411 39.5313 4.17938 38.784 3.71625C38.0367 3.25313 37.1322 3.09949 36.2693 3.2891L33.9237 3.80749L6.74197 9.8145C5.87926 10.0049 5.12903 10.523 4.65613 11.2549C4.18324 11.9867 4.02635 12.8725 4.21996 13.7176C4.45865 25.3555 5.7041 35.9161 10.8208 42.3603C11.4031 44.8668 12.653 47.1776 14.4432 49.0575C16.2333 50.9375 18.5 52.3195 21.0126 53.0632C21.0749 53.0835 21.1268 53.1038 21.189 53.1241C21.2306 53.1343 21.2825 53.1546 21.324 53.1648C23.6889 53.8165 26.1826 53.8794 28.5787 53.3478L46.8659 49.3024C47.7286 49.1119 48.4788 48.5939 48.9517 47.862C49.4246 47.1302 49.5815 46.2444 49.3879 45.3994Z" fill="white"/>
<path d="M22.3074 20.4732C22.9088 19.7935 23.7187 19.3227 24.6159 19.1311C25.5132 18.9395 26.4497 19.0374 27.2854 19.4101C29.0993 20.2974 29.8031 22.1852 29.5133 24.0622C29.1895 26.1591 28.0711 28.068 27.9695 30.215C27.8806 32.0939 28.5958 34.0682 30.2959 35.0797C31.515 35.8051 32.7699 34.0094 31.5449 33.2806C29.5292 32.0812 30.2065 29.4456 30.7913 27.6479C31.5213 25.4031 32.2821 23.1146 31.3789 20.8016C30.9791 19.8332 30.3377 18.9784 29.5134 18.3155C28.6892 17.6525 27.7083 17.2026 26.6606 17.0068C25.6129 16.811 24.5317 16.8756 23.5161 17.1947C22.5005 17.5138 21.5827 18.0772 20.8469 18.8334C19.885 19.8492 21.3334 21.5017 22.3074 20.4732Z" fill="#788FDC"/>
<path d="M32.0921 41.3496C33.319 41.3496 34.3136 40.3756 34.3136 39.174C34.3136 37.9725 33.319 36.9984 32.0921 36.9984C30.8652 36.9984 29.8706 37.9725 29.8706 39.174C29.8706 40.3756 30.8652 41.3496 32.0921 41.3496Z" fill="#788FDC"/>
<path d="M171.909 420.533L136.74 420.327L125.282 420.262C123.313 420.252 121.699 420.985 121.677 421.899L121.631 423.713L121.245 438.258C121.216 439.167 122.791 439.921 124.76 439.931C139.106 442.229 153.718 442.461 168.132 440.62C169.212 440.492 170.298 440.351 171.39 440.198C172.056 440.207 172.72 440.119 173.36 439.935C174.332 439.642 174.975 439.138 174.992 438.565L175.044 436.657L175.072 435.481L175.424 422.206C175.446 421.292 173.868 420.542 171.909 420.533Z" fill="#E6E6E6"/>
<path d="M169.31 421.772L135.85 421.582L127.818 421.534C125.978 421.524 124.463 422.208 124.44 423.063L124.411 424.18L124.068 437.124C124.045 437.978 125.519 438.682 127.359 438.693C138.974 439.866 149.752 440.466 157.34 438.864C162.864 438.891 167.735 437.508 170.336 435.437C170.37 435.411 170.403 435.39 170.437 435.364C170.457 435.346 170.489 435.325 170.509 435.307C171.038 434.925 171.478 434.437 171.8 433.875C172.122 433.313 172.317 432.691 172.374 432.049L172.601 423.341C172.624 422.486 171.15 421.782 169.31 421.772Z" fill="white"/>
<path d="M138.267 431.264C137.242 430.55 137.134 429.581 138.367 428.897C139.669 428.175 141.707 428.065 143.504 428.403C145.512 428.78 147.148 429.495 149.257 429.778C151.103 430.025 153.23 429.919 154.629 429.262C155.632 428.791 154.14 428.026 153.132 428.5C151.473 429.278 149.012 428.682 147.362 428.22C145.302 427.643 143.206 427.047 140.699 427.201C136.138 427.48 133.758 429.975 136.3 431.743C137.085 432.289 139.063 431.817 138.267 431.264Z" fill="#E6E6E6"/>
<path d="M159.112 429.933C160.339 429.933 161.334 429.471 161.334 428.901C161.334 428.331 160.339 427.869 159.112 427.869C157.885 427.869 156.891 428.331 156.891 428.901C156.891 429.471 157.885 429.933 159.112 429.933Z" fill="#E6E6E6"/>
<path d="M2.59675 168.371C-0.459056 155.801 0.0505591 143.422 5.28321 131.292C5.33845 130.542 5.69536 129.844 6.27566 129.351C6.85596 128.858 7.61226 128.61 8.37862 128.663L36.9717 130.65C37.7379 130.704 38.4509 131.053 38.9543 131.622C39.4577 132.19 39.7104 132.931 39.6569 133.681L36.9704 170.759C36.9152 171.51 36.5583 172.208 35.978 172.701C35.3977 173.194 34.6414 173.441 33.8751 173.389L5.28199 171.402C4.51576 171.348 3.80271 170.998 3.29931 170.43C2.79591 169.862 2.54324 169.121 2.59675 168.371Z" fill="#F2F2F2"/>
<path d="M5.60142 157.324C3.1559 151.13 4.71954 142.611 7.32852 133.487C7.38024 132.784 7.71449 132.13 8.25797 131.668C8.80144 131.206 9.50974 130.975 10.2275 131.024L34.8008 132.731C35.5184 132.782 36.1862 133.109 36.6577 133.642C37.1292 134.174 37.3658 134.868 37.3157 135.57L34.9252 168.565C34.8734 169.268 34.5391 169.922 33.9956 170.383C33.4521 170.845 32.7438 171.077 32.0261 171.028L16.8034 169.97C13.6069 169.744 10.6324 168.286 8.53234 165.915C6.43228 163.545 5.37823 160.455 5.60142 157.324Z" fill="white"/>
<path d="M22.6142 158.94C21.8636 158.814 21.113 158.688 20.3625 158.561C20.7083 157.762 20.9078 156.909 20.9521 156.042C21.3073 151.402 21.3432 146.717 21.5327 142.067C21.5277 141.897 21.4727 141.732 21.3741 141.592C21.2756 141.452 21.1377 141.343 20.9772 141.277C20.8168 141.212 20.6405 141.194 20.4696 141.225C20.2988 141.256 20.1407 141.334 20.0144 141.451C18.1293 142.98 16.2443 144.509 14.3592 146.038C13.4768 146.754 14.7413 147.981 15.617 147.27C16.97 146.173 18.323 145.075 19.676 143.978C19.5518 147.025 19.4276 150.071 19.3035 153.118C19.2439 154.581 19.4254 156.356 18.8141 157.731C18.7305 157.916 18.6214 158.09 18.4898 158.246C17.6588 158.106 16.8277 157.967 15.9967 157.827C15.399 157.726 14.6396 158.215 14.9026 158.898C15.4746 160.384 17.1608 160.854 18.6066 160.281C18.7341 160.225 18.8574 160.16 18.9757 160.087L22.1414 160.62C23.261 160.809 23.742 159.13 22.6142 158.94Z" fill="#F2F2F2"/>
<path d="M106.359 171.855C103.303 159.285 103.812 146.906 109.045 134.776C109.1 134.026 109.457 133.328 110.038 132.835C110.618 132.342 111.374 132.094 112.14 132.147L140.734 134.134C141.5 134.188 142.213 134.537 142.716 135.106C143.22 135.674 143.472 136.415 143.419 137.165L140.732 174.243C140.677 174.994 140.32 175.692 139.74 176.185C139.16 176.678 138.403 176.925 137.637 176.873L109.044 174.886C108.278 174.832 107.565 174.482 107.061 173.914C106.558 173.346 106.305 172.605 106.359 171.855Z" fill="#F2F2F2"/>
<path d="M109.363 160.808C106.918 154.614 108.481 146.095 111.09 136.971C111.142 136.268 111.476 135.614 112.02 135.152C112.563 134.69 113.272 134.459 113.989 134.508L138.563 136.215C139.28 136.266 139.948 136.593 140.42 137.126C140.891 137.658 141.128 138.352 141.078 139.054L138.687 172.049C138.635 172.752 138.301 173.406 137.758 173.867C137.214 174.329 136.506 174.561 135.788 174.512L120.565 173.454C117.369 173.228 114.394 171.77 112.294 169.399C110.194 167.029 109.14 163.939 109.363 160.808Z" fill="white"/>
<path d="M125.405 154.517C125.732 154.367 126.041 154.184 126.327 153.969C127.089 153.354 127.652 152.535 127.948 151.613C128.245 150.69 128.261 149.703 127.996 148.771C126.843 144.623 121.776 144.598 118.278 145.097C117.15 145.258 117.629 146.937 118.751 146.777C121.108 146.44 124.809 146.168 126.076 148.69C126.365 149.282 126.468 149.946 126.372 150.595C126.275 151.245 125.984 151.852 125.535 152.339C124.997 152.867 124.29 153.197 123.533 153.272C122.799 152.959 122.003 152.814 121.204 152.846C120.38 152.884 119.92 154.058 120.755 154.469C121.493 154.829 122.307 155.017 123.132 155.018C123.817 155.341 124.388 155.855 124.775 156.496C125.162 157.136 125.347 157.874 125.306 158.617C125.228 159.126 125.047 159.614 124.775 160.054C124.503 160.494 124.144 160.877 123.721 161.181C123.297 161.485 122.816 161.704 122.305 161.825C121.795 161.947 121.265 161.968 120.746 161.888C119.628 161.668 119.15 163.347 120.273 163.568C121.04 163.709 121.827 163.697 122.589 163.533C123.351 163.368 124.071 163.054 124.706 162.61C125.34 162.165 125.876 161.6 126.282 160.947C126.687 160.294 126.954 159.568 127.065 158.812C127.136 158.02 127.023 157.222 126.736 156.479C126.448 155.735 125.993 155.065 125.405 154.517Z" fill="#F2F2F2"/>
<path d="M161.942 409.633L151.882 409.632L147.097 371.631L161.944 371.632L161.942 409.633Z" fill="#FFB6B6"/>
<path d="M162.296 419.911L131.36 419.91V419.527C131.361 416.399 132.629 413.4 134.887 411.189C137.146 408.977 140.208 407.735 143.402 407.735H143.402L149.053 403.536L159.596 407.735L162.297 407.735L162.296 419.911Z" fill="#2F2E41"/>
<path d="M208.191 430.537L198.13 430.537L193.345 392.535L208.192 392.536L208.191 430.537Z" fill="#FFB6B6"/>
<path d="M208.545 440.815L177.609 440.814V440.431C177.609 437.303 178.878 434.304 181.136 432.093C183.394 429.881 186.456 428.639 189.65 428.639H189.651L195.301 424.44L205.845 428.639L208.545 428.639L208.545 440.815Z" fill="#2F2E41"/>
<path d="M84.4177 126.635C85.1088 127.391 85.9593 127.992 86.9106 128.395C87.8618 128.797 88.891 128.993 89.927 128.968C90.963 128.943 91.9811 128.698 92.9108 128.249C93.8406 127.801 94.6598 127.16 95.3119 126.371L129.613 135.933L134.647 127.292L93.8215 116.227C92.384 115.251 90.6308 114.825 88.8942 115.03C87.1576 115.235 85.5582 116.057 84.3991 117.34C83.24 118.623 82.6017 120.278 82.6051 121.991C82.6086 123.704 83.2535 125.357 84.4177 126.635Z" fill="#FFB6B6"/>
<path d="M173.618 206.615L137.525 287.433L133.374 300.208L145.923 389.873L166.177 388.905L166.132 377.407C166.132 377.407 161.312 374.847 166.116 373.456C170.921 372.066 170.718 368.536 166.076 363.333C161.434 358.13 165.859 308.338 165.859 308.338C165.859 308.338 184.973 290.412 182.891 285.729C180.808 281.046 184.674 281.046 184.674 281.046C184.674 281.046 188.795 280.324 188.952 278.362C189.109 276.401 192.164 272.456 192.164 272.456L191.094 410.554H208.57C208.57 410.554 216.56 397.551 214.99 394.753C213.419 391.954 211.223 391.68 214.99 388.333C218.756 384.986 224.283 387.725 221.816 381.42C219.349 375.115 219.983 307.074 219.983 307.074C219.983 307.074 229.704 267.59 223.698 264.909C217.692 262.228 220.678 262.606 224.224 258.933C227.771 255.26 221.756 255.595 224.764 252.815C227.771 250.034 227.893 217.305 227.893 217.305L173.618 206.615Z" fill="#2F2E41"/>
<path d="M230.614 229.366C205.314 229.308 183.607 234.876 158.307 234.818C159.955 223.647 165.716 206.135 167.363 194.961C169.68 179.243 167.884 169.862 170.195 154.145C170.426 152.607 170.652 151.074 170.877 149.535C171.79 143.322 169.602 137.109 173.527 130.547C175.199 127.748 177.98 124.891 182.587 121.941C192.157 122.894 191.991 118.666 201.561 119.619L204.727 125.797C205.13 128.143 206.583 129.67 208.551 130.826C212.601 133.224 218.839 134.06 222.586 137.306C227.294 141.382 226.98 147.903 225.58 154.267C225.082 156.532 224.448 158.773 223.849 160.881C219.029 177.864 225.19 190.82 230.213 206.574C230.69 208.068 226.178 213.845 226.656 215.284C227.466 217.723 230.369 220.757 229.907 222.406C229.335 224.446 228.764 226.366 230.614 229.366Z" fill="#788FDC"/>
<path d="M225.58 154.267L170.195 154.146L168.416 154.14L102.734 130.506L111.14 130.785L115.041 121.976L116.921 117.743L155.633 130.413L173.527 130.547L207.265 130.791C207.698 130.797 208.124 130.808 208.551 130.826C212.601 133.224 218.839 134.06 222.586 137.306C227.294 141.382 226.979 147.903 225.58 154.267Z" fill="#788FDC"/>
<path d="M187.741 117.933C197.681 117.933 205.739 110.042 205.739 100.307C205.739 90.572 197.681 82.6804 187.741 82.6804C177.801 82.6804 169.743 90.572 169.743 100.307C169.743 110.042 177.801 117.933 187.741 117.933Z" fill="#FFB6B6"/>
<path d="M185.183 115.457L186.649 120.048C189.9 118.477 199.124 116.296 201.831 113.934C204.538 111.572 206.631 108.313 206.759 104.765C206.826 102.932 206.372 101.084 206.683 99.2755C207.035 97.2323 208.322 95.461 208.912 93.4711C209.463 91.3868 209.256 89.1794 208.325 87.2288C207.394 85.2782 205.798 83.7063 203.812 82.7836C200.828 81.4995 197.417 81.8599 194.173 81.5496C190.93 81.2393 187.312 79.8024 186.399 76.7386C186.057 75.5931 186.097 74.2425 185.052 73.4925C184.527 73.1488 183.89 73.0076 183.265 73.0961C182.64 73.1846 182.071 73.4966 181.666 73.9719C181.618 74.0254 181.572 74.0794 181.528 74.1339C178.782 77.507 173.608 77.7574 170.9 74.3553C170.723 74.133 170.553 73.9055 170.389 73.6729C169.82 74.1947 169.363 74.8218 169.043 75.5179C168.723 76.2141 168.547 76.9654 168.525 77.7286C168.503 78.4917 168.636 79.2515 168.916 79.964C169.196 80.6765 169.617 81.3276 170.156 81.8796C169.133 81.88 168.14 81.5429 167.337 80.9227C166.534 80.3024 165.968 79.4353 165.73 78.4611C164.488 80.1413 163.213 81.8934 162.814 83.9305C162.414 85.9675 163.155 88.3768 165.063 89.2782C166.037 89.655 167.082 89.8226 168.127 89.7695C163.206 95.4699 166.159 95.3059 176.124 89.9183C181.068 90.0103 179.115 94.5092 179.179 99.3512C181.506 99.1323 183.902 98.9182 186.102 99.8778C187.127 100.3 187.991 101.027 188.572 101.956C190.026 104.402 188.583 106.944 187.305 109.169C186.212 111.07 185.176 113.361 186.083 115.354" fill="#2F2E41"/>
<path d="M152.426 263.223C153.333 262.733 154.12 262.054 154.733 261.236C155.346 260.418 155.77 259.479 155.977 258.484C156.183 257.49 156.166 256.463 155.927 255.476C155.688 254.488 155.233 253.563 154.593 252.765L171.764 222.151L164.285 215.419L144.163 251.924C142.871 253.079 142.056 254.657 141.873 256.361C141.69 258.065 142.151 259.775 143.17 261.168C144.188 262.561 145.693 263.539 147.399 263.918C149.105 264.297 150.893 264.05 152.426 263.223Z" fill="#FFB6B6"/>
<path d="M194.303 120.066L190.301 190.281L171.019 234.406L158.469 250.705L159.896 243.319L151.245 239.081L150.433 238.686L161.947 210.122L165.422 201.505L167.041 175.567L168.57 151.039C168.834 146.818 169.99 142.697 171.963 138.935C173.937 135.174 176.687 131.855 180.038 129.188L189.643 121.547L194.303 120.066Z" fill="#788FDC"/>
<path d="M59.5175 120.175C56.4617 107.606 56.9713 95.2257 62.204 83.0966C62.2592 82.3462 62.6161 81.6479 63.1964 81.1549C63.7767 80.6619 64.533 80.4144 65.2994 80.4668L93.8925 82.4537C94.6587 82.5078 95.3717 82.8574 95.8751 83.4257C96.3785 83.994 96.6312 84.7347 96.5777 85.4852L93.8912 122.563C93.836 123.314 93.4791 124.012 92.8988 124.505C92.3185 124.998 91.5622 125.245 90.7958 125.193L62.2028 123.206C61.4365 123.152 60.7235 122.803 60.2201 122.234C59.7167 121.666 59.464 120.925 59.5175 120.175Z" fill="#F2F2F2"/>
<path d="M62.5222 109.128C60.0767 102.934 61.6403 94.4155 64.2493 85.2907C64.301 84.588 64.6353 83.934 65.1788 83.4723C65.7222 83.0105 66.4305 82.7788 67.1483 82.8279L91.7216 84.5355C92.4392 84.5861 93.107 84.9135 93.5785 85.4457C94.05 85.978 94.2866 86.6717 94.2365 87.3746L91.846 120.369C91.7942 121.072 91.4599 121.726 90.9164 122.188C90.3729 122.649 89.6646 122.881 88.9469 122.832L73.7242 121.774C70.5277 121.548 67.5532 120.09 65.4531 117.719C63.3531 115.349 62.299 112.259 62.5222 109.128Z" fill="white"/>
<path d="M77.6336 92.524C75.1146 91.668 72.3135 93.6189 72.0276 96.1483C71.7036 99.0153 74.8526 101.279 77.5787 100.499C78.6754 100.186 78.2087 98.5044 77.1059 98.8196C75.1076 99.3907 72.976 97.2777 74.1249 95.3885C74.3859 94.9325 74.7826 94.5652 75.262 94.3354C75.7415 94.1057 76.281 94.0244 76.8088 94.1024C77.257 94.224 77.6697 94.4467 78.0141 94.7527C78.3584 95.0587 78.6247 95.4395 78.7916 95.8645C79.772 98.0283 78.6069 100.225 77.0625 101.798C76.1817 102.695 75.1483 103.392 74.199 104.209C73.7375 104.551 73.3541 104.983 73.0737 105.479C72.7933 105.974 72.622 106.522 72.5708 107.086C72.5958 107.721 72.7976 108.336 73.1541 108.867C73.5107 109.397 74.0087 109.822 74.594 110.095C76.1105 110.859 77.8355 110.616 79.4488 110.362C80.576 110.184 80.0976 108.506 78.9759 108.682C77.5649 108.905 75.4524 109.242 74.5583 107.801C73.7926 106.567 75.3701 105.483 76.2296 104.827C78.3898 103.177 80.5743 101.047 80.8987 98.2421C81.1644 95.9443 79.972 93.3188 77.6336 92.524Z" fill="#788FDC"/>
<path d="M225.915 431.935C226.191 431.948 226.464 431.877 226.697 431.732C226.93 431.588 227.112 431.377 227.218 431.127C227.325 430.878 227.35 430.603 227.292 430.339C227.233 430.075 227.093 429.835 226.89 429.651L226.798 429.292C226.81 429.264 226.823 429.235 226.835 429.206C227.113 428.564 227.578 428.016 228.172 427.632C228.767 427.248 229.464 427.044 230.176 427.047C230.888 427.05 231.583 427.258 232.175 427.647C232.766 428.035 233.227 428.586 233.5 429.23C234.59 431.802 235.978 434.377 236.32 437.096C236.471 438.298 236.407 439.516 236.132 440.697C238.693 435.227 240.022 429.282 240.031 423.264C240.031 421.754 239.946 420.246 239.774 418.745C239.633 417.515 239.436 416.293 239.185 415.081C237.812 408.501 234.866 402.334 230.587 397.086C228.516 395.979 226.841 394.278 225.789 392.21C225.407 391.467 225.138 390.674 224.988 389.855C225.222 389.885 225.869 386.401 225.693 386.187C226.018 385.703 226.601 385.463 226.957 384.991C228.725 382.643 231.161 383.053 232.433 386.243C235.15 387.586 235.176 389.813 233.509 391.955C232.448 393.318 232.303 395.162 231.372 396.621C231.468 396.741 231.567 396.857 231.663 396.977C233.413 399.181 234.939 401.548 236.217 404.043C235.907 401.248 236.278 398.42 237.3 395.792C238.337 393.343 240.28 391.281 241.991 389.164C242.443 388.595 243.058 388.17 243.757 387.944C244.455 387.717 245.207 387.698 245.917 387.89C246.627 388.081 247.262 388.475 247.744 389.02C248.225 389.566 248.531 390.239 248.622 390.954C248.625 390.985 248.629 391.016 248.632 391.048C248.378 391.188 248.129 391.337 247.886 391.495C247.58 391.695 247.343 391.981 247.206 392.315C247.069 392.649 247.038 393.016 247.118 393.368C247.198 393.719 247.384 394.039 247.652 394.285C247.92 394.531 248.258 394.693 248.622 394.747L248.659 394.753C248.568 395.65 248.408 396.539 248.18 397.412C250.375 405.725 245.637 408.753 238.871 408.889C238.721 408.964 238.576 409.039 238.426 409.11C239.711 412.676 240.517 416.39 240.824 420.159C240.997 422.383 240.987 424.616 240.793 426.839L240.804 426.76C241.295 424.289 242.641 422.059 244.615 420.448C247.547 418.089 251.69 417.22 254.854 415.324C255.19 415.112 255.581 414.999 255.98 414.998C256.38 414.998 256.771 415.108 257.109 415.318C257.446 415.528 257.715 415.828 257.884 416.182C258.053 416.537 258.115 416.932 258.062 417.319L258.049 417.402C257.578 417.59 257.119 417.807 256.674 418.051C256.42 418.192 256.172 418.341 255.928 418.498C255.622 418.698 255.385 418.984 255.248 419.318C255.111 419.652 255.081 420.019 255.16 420.371C255.24 420.723 255.426 421.043 255.694 421.289C255.963 421.535 256.301 421.696 256.664 421.751L256.701 421.757C256.728 421.76 256.751 421.764 256.778 421.768C255.972 423.652 254.841 425.386 253.435 426.895C252.062 434.151 246.168 434.84 239.862 432.727H239.859C239.167 435.671 238.164 438.537 236.868 441.278H226.183C226.145 441.162 226.11 441.042 226.076 440.925C227.065 440.986 228.058 440.928 229.032 440.753C228.239 439.8 227.447 438.84 226.654 437.887C226.636 437.87 226.62 437.851 226.604 437.831C226.202 437.344 225.796 436.86 225.394 436.372L225.394 436.372C225.372 434.877 225.548 433.386 225.915 431.935Z" fill="#F2F2F2"/>
<path d="M106.41 441.309C106.41 441.4 106.428 441.49 106.464 441.574C106.499 441.658 106.551 441.734 106.617 441.798C106.682 441.862 106.76 441.913 106.846 441.948C106.931 441.983 107.023 442 107.116 442H257.298C257.485 442 257.665 441.927 257.797 441.798C257.929 441.668 258.004 441.492 258.004 441.309C258.004 441.126 257.929 440.95 257.797 440.82C257.665 440.691 257.485 440.618 257.298 440.618H107.116C107.023 440.618 106.931 440.635 106.846 440.67C106.76 440.705 106.682 440.756 106.617 440.82C106.551 440.884 106.499 440.96 106.464 441.044C106.428 441.128 106.41 441.218 106.41 441.309Z" fill="#CCCCCC"/>
<path d="M30.8058 59.5381C30.0637 70.2767 30.4202 82.4643 38.932 90.4307C40.9263 92.3145 43.308 93.7601 45.9181 94.671C46.9999 95.0444 47.4651 93.362 46.391 92.9912C42.0185 91.4817 38.5784 88.1644 36.2865 84.286C33.5996 79.7393 32.5744 74.4942 32.3499 69.2953C32.2457 66.0411 32.324 62.7838 32.5845 59.5381C32.6619 58.419 30.8828 58.4237 30.8058 59.5381Z" fill="#3F3D56"/>
<path d="M44.0649 84.1119C46.1747 85.0718 48.3861 86.0485 50.0551 87.6806C51.5776 89.1695 52.6406 91.3412 52.0238 93.4634C51.0117 96.9451 46.5046 98.2579 43.3621 99.0882C43.142 99.1558 42.9572 99.3044 42.8467 99.5028C42.7363 99.7012 42.7088 99.9339 42.7701 100.152C42.8315 100.37 42.9768 100.556 43.1754 100.671C43.3741 100.786 43.6106 100.82 43.835 100.768C46.9961 99.9327 50.5407 98.7667 52.6056 96.1163C55.0489 92.9802 53.889 88.8464 51.1443 86.2883C49.3761 84.6402 47.1518 83.6037 44.9626 82.6077C43.931 82.1384 43.0266 83.6395 44.0649 84.1119Z" fill="#3F3D56"/>
</g>
<defs>
<clipPath id="clip0_28_128">
<rect width="257.482" height="442" fill="white" transform="translate(0.604553)"/>
</clipPath>
</defs>
</svg>
