<svg width="790" height="554" viewBox="0 0 790 554" fill="none" xmlns="http://www.w3.org/2000/svg">
<g clip-path="url(#clip0_602_145)">
<path d="M729.238 553.391C763.076 553.391 783.979 524.891 788.578 491.363C800.847 401.931 687.181 380.6 655.2 297.724C604.725 166.952 567.513 32.124 426.36 43.229C235.03 58.284 238.823 212.029 119.692 311.363C41.564 376.5 0.006 433.17 0 494.086C0.0161709 509.826 6.28275 524.915 17.4218 536.035C28.5608 547.155 43.6603 553.396 59.4 553.386L729.238 553.391Z" fill="#F3F5FD"/>
<path d="M141.332 100.409C141.332 100.409 140.075 88.245 129.387 88.245C116.694 88.245 125.361 123.123 130.915 144.445C131.507 146.726 131.612 149.106 131.222 151.429C130.832 153.753 129.956 155.969 128.651 157.931C127.347 159.893 125.643 161.558 123.652 162.817C121.66 164.076 119.425 164.901 117.093 165.238C114.846 165.565 112.555 165.431 110.361 164.846C108.167 164.26 106.115 163.235 104.329 161.832C102.544 160.428 101.062 158.677 99.9738 156.684C98.8857 154.69 98.2142 152.497 98 150.236C95.431 122.888 96.029 72.428 124.8 73.4C143.493 74.031 143.493 92.665 143.493 92.665L141.332 100.409Z" fill="#0F1011"/>
<path d="M144.269 138.891C146.248 135.521 148.318 129.031 147.338 117.061L163.318 114.101C163.318 114.101 161.539 132.821 169.498 138.891H144.269Z" fill="#E98862"/>
<path opacity="0.15" d="M166.328 135.028L153.056 124.875L163.48 124.767C163.782 128.335 164.748 131.815 166.328 135.028Z" fill="black"/>
<path d="M138.273 108.9C139.379 115.289 142.866 121.338 148.501 123.4C154.643 125.838 161.289 126.736 167.858 126.015C185.348 124.581 181.888 84.815 173.585 77.089C165.282 69.363 140.912 74.256 137.948 87.176C136.414 93.86 137.221 102.82 138.273 108.9Z" fill="#E98862"/>
<path d="M163.292 103.979C164.092 103.979 164.741 103.33 164.741 102.53C164.741 101.73 164.092 101.081 163.292 101.081C162.492 101.081 161.843 101.73 161.843 102.53C161.843 103.33 162.492 103.979 163.292 103.979Z" fill="#0F1011"/>
<path d="M174.723 103.042C175.523 103.042 176.172 102.393 176.172 101.593C176.172 100.793 175.523 100.144 174.723 100.144C173.923 100.144 173.274 100.793 173.274 101.593C173.274 102.393 173.923 103.042 174.723 103.042Z" fill="#0F1011"/>
<path d="M177.234 98.505H177.225L173.386 98.457C173.292 98.464 173.197 98.4515 173.109 98.4201C173.02 98.3887 172.938 98.3392 172.869 98.2747C172.801 98.2102 172.746 98.1321 172.709 98.0454C172.672 97.9587 172.653 97.8652 172.654 97.7709C172.655 97.6766 172.676 97.5835 172.715 97.4976C172.753 97.4116 172.81 97.3347 172.88 97.2716C172.95 97.2085 173.032 97.1607 173.122 97.1312C173.211 97.1016 173.306 97.091 173.4 97.1L177.239 97.148C177.415 97.1558 177.581 97.2315 177.702 97.3592C177.824 97.4869 177.891 97.6567 177.89 97.8328C177.889 98.009 177.819 98.1778 177.696 98.3039C177.573 98.43 177.406 98.5035 177.23 98.509L177.234 98.505Z" fill="#0F1011"/>
<path d="M160.164 99.905C159.997 99.9048 159.837 99.8436 159.712 99.7328C159.588 99.6221 159.508 99.4695 159.488 99.3041C159.469 99.1386 159.511 98.9717 159.606 98.8349C159.701 98.6982 159.843 98.6011 160.005 98.562L163.79 97.651C163.877 97.6288 163.968 97.6241 164.058 97.6372C164.147 97.6504 164.232 97.6812 164.31 97.7277C164.387 97.7743 164.454 97.8357 164.507 97.9084C164.561 97.9812 164.599 98.0638 164.62 98.1514C164.641 98.2391 164.645 98.3301 164.63 98.4191C164.616 98.5081 164.584 98.5934 164.537 98.67C164.489 98.7466 164.427 98.813 164.353 98.8654C164.28 98.9178 164.197 98.955 164.109 98.975L160.324 99.886C160.272 99.8986 160.218 99.905 160.164 99.905Z" fill="#0F1011"/>
<path d="M163.962 113.942C163.962 113.942 169.311 114.506 173.062 113.196C173.062 113.196 173.032 116.719 168.8 117.066C164.568 117.413 163.962 113.942 163.962 113.942Z" fill="#F8FCFF"/>
<path d="M150.041 92.349C151.566 121.496 147.566 124.504 147.566 124.504C147.566 124.504 133 115.745 131.1 98.242C129.317 81.833 141.409 72.142 149.578 70.318C180.623 63.376 184.05 91.641 184.05 91.641C168.511 95.635 146.679 92.931 146.679 92.931" fill="#0F1011"/>
<path d="M155.754 106.076C155.832 106.886 155.748 107.704 155.507 108.482C155.266 109.259 154.872 109.981 154.35 110.605C153.828 111.229 153.186 111.744 152.463 112.118C151.741 112.492 150.95 112.719 150.139 112.785C149.328 112.852 148.511 112.756 147.737 112.504C146.963 112.252 146.247 111.849 145.63 111.317C145.013 110.786 144.508 110.138 144.144 109.41C143.78 108.681 143.565 107.888 143.51 107.076C143.43 106.269 143.513 105.455 143.755 104.681C143.996 103.907 144.391 103.19 144.915 102.572C145.439 101.954 146.083 101.448 146.807 101.084C147.531 100.719 148.321 100.505 149.13 100.452C153.508 100.313 155.477 102.7 155.754 106.076Z" fill="#E98862"/>
<g opacity="0.15">
<path d="M169.724 110.567C169.604 110.567 169.488 110.524 169.398 110.446C169.307 110.368 169.247 110.26 169.229 110.141C169.211 110.023 169.237 109.902 169.301 109.801C169.364 109.699 169.462 109.624 169.577 109.589L172.524 108.684L170.463 104.093C170.414 103.973 170.413 103.838 170.461 103.718C170.509 103.597 170.602 103.5 170.721 103.447C170.839 103.393 170.974 103.388 171.096 103.433C171.218 103.477 171.318 103.567 171.375 103.684L173.668 108.792C173.697 108.857 173.712 108.927 173.712 108.997C173.711 109.068 173.696 109.138 173.667 109.203C173.638 109.267 173.595 109.325 173.542 109.371C173.489 109.418 173.427 109.453 173.359 109.474L169.871 110.545C169.823 110.56 169.774 110.567 169.724 110.567Z" fill="black"/>
</g>
<path d="M137.276 78.024C134.322 80.7943 132.373 84.4673 131.733 88.466" stroke="#262626" stroke-width="5" stroke-linecap="round" stroke-linejoin="round"/>
<path d="M210.06 542.572L189.206 540.091C190.145 532.199 191.206 522.718 191.278 521.163C191.278 521.263 191.278 521.345 191.278 521.408H212.278C212.274 522.038 212.274 523.953 210.06 542.572Z" fill="#E98862"/>
<path d="M126.384 545.081L105.384 545.013C105.384 545.013 105.455 523.328 105.455 521.408H126.455C126.455 523.334 126.384 545.081 126.384 545.081Z" fill="#E98862"/>
<path d="M180.812 535.94L217.807 535.31C216.269 496.347 216.007 451.782 215.594 411.455C215.479 401.46 214.725 391.482 213.334 381.583C207.382 338.86 203.499 296.378 195.486 253.904L195.219 253.983L194.437 248.653L118.36 243.958L114.4 293.663C114.4 293.663 104.491 465.61 99.972 534.748L136.84 537.863C143.483 470.077 153.764 371.307 160.086 300.096C167.347 334.766 172.286 370.664 178.6 405.037C179.864 448.063 180.93 493.042 180.812 535.94Z" fill="#262626"/>
<path d="M151.912 553.2C152.477 553.197 153.035 553.078 153.552 552.85C154.068 552.622 154.532 552.29 154.915 551.875C155.297 551.459 155.59 550.969 155.775 550.436C155.96 549.902 156.033 549.336 155.989 548.773C155.928 547.993 155.646 547.246 155.175 546.62C154.703 545.995 154.063 545.518 153.33 545.244L128.888 537.057C128.414 536.9 127.912 536.848 127.417 536.903C126.921 536.958 126.443 537.119 126.015 537.376C122.655 539.708 118.635 540.9 114.547 540.776C111.363 540.55 108.307 539.434 105.727 537.554C105.5 537.368 105.225 537.25 104.934 537.214C104.643 537.179 104.348 537.227 104.083 537.352C103.818 537.478 103.594 537.677 103.438 537.925C103.282 538.173 103.199 538.461 103.2 538.754V550.706C103.2 551.059 103.27 551.408 103.405 551.733C103.54 552.059 103.738 552.355 103.988 552.604C104.238 552.852 104.535 553.049 104.861 553.183C105.187 553.317 105.536 553.385 105.889 553.384L151.912 553.2Z" fill="#C1D8ED"/>
<path d="M235.646 553.2C236.211 553.197 236.769 553.078 237.285 552.85C237.802 552.622 238.266 552.29 238.649 551.875C239.031 551.459 239.324 550.969 239.508 550.436C239.693 549.902 239.766 549.336 239.722 548.773C239.661 547.993 239.379 547.246 238.908 546.621C238.437 545.995 237.797 545.518 237.064 545.244L212.621 537.057C212.148 536.9 211.646 536.848 211.15 536.903C210.654 536.958 210.177 537.119 209.749 537.376C206.389 539.708 202.369 540.9 198.281 540.776C195.097 540.55 192.041 539.434 189.461 537.554C189.234 537.368 188.959 537.25 188.668 537.215C188.377 537.179 188.082 537.227 187.817 537.353C187.552 537.478 187.328 537.677 187.171 537.925C187.015 538.173 186.932 538.461 186.933 538.754V550.706C186.933 551.059 187.003 551.408 187.138 551.733C187.273 552.059 187.471 552.355 187.721 552.604C187.971 552.852 188.268 553.049 188.594 553.183C188.92 553.317 189.269 553.385 189.622 553.384L235.646 553.2Z" fill="#C1D8ED"/>
<path d="M277.967 138.064C276.467 137.676 261.303 146.498 261.303 146.498L270.645 154.95C270.645 154.95 280.923 151.35 284.153 145.393C287.522 139.185 277.967 138.064 277.967 138.064Z" fill="#E98862"/>
<path d="M217.807 208.341C217.47 208.341 217.133 208.324 216.797 208.29C215.326 208.141 213.907 207.667 212.641 206.904C211.376 206.14 210.295 205.105 209.477 203.874L176.343 153.982L193 142.917L219.4 182.662L262.175 140.15L276.275 154.335L224.859 205.435C222.985 207.297 220.449 208.342 217.807 208.341Z" fill="#367CFF"/>
<path d="M199.376 252C195.186 261.63 112.856 265.63 111.756 248.69C111.056 237.91 120.556 228.5 120.556 207.49C120.556 186.48 101.226 159.65 116.976 143.9C121.546 139.33 129.436 136.38 139.056 136.37C139.776 141.98 173.836 142 174.096 136.5C175.396 136.52 176.406 136.54 177.036 136.57C210.216 138 195.636 175.76 195.316 203.5C194.926 235.961 203.7 242.081 199.376 252Z" fill="#367CFF"/>
<path d="M174.1 136.5C173.84 142 170.85 150.09 161.62 150.7C149.32 151.51 139.78 141.98 139.06 136.37H139.09C151.2 136.371 167.036 136.391 174.1 136.5Z" fill="#E98862"/>
<path d="M237.173 185.667C239.22 192.871 244.041 198.968 250.578 202.621C257.115 206.275 264.835 207.186 272.043 205.155L309.266 194.624L317.474 223.637L280.251 234.168C272.852 236.321 265.1 236.989 257.441 236.132C249.783 235.276 242.37 232.912 235.629 229.178C228.889 225.443 222.954 220.411 218.167 214.372C213.38 208.333 209.835 201.407 207.738 193.992C205.64 186.577 205.03 178.82 205.944 171.168C206.858 163.516 209.278 156.121 213.063 149.409C216.848 142.696 221.924 136.8 227.999 132.058C234.073 127.316 241.026 123.824 248.457 121.782L285.68 111.251L293.888 140.265L256.665 150.795C249.461 152.842 243.363 157.663 239.709 164.201C236.055 170.738 235.143 178.458 237.173 185.667Z" fill="#FD5D76"/>
<path d="M317.323 102.302L285.68 111.253L293.888 140.267L325.531 131.315L317.323 102.302Z" fill="#D7E8F4"/>
<path d="M340.909 185.675L309.266 194.627L317.473 223.64L349.116 214.688L340.909 185.675Z" fill="#D7E8F4"/>
<path d="M216.141 211.77C215.801 211.86 215.431 211.94 215.041 212.03L210.691 197.86C214.531 195.95 219.651 193.62 221.651 193.71C222.651 193.76 222.731 194.45 222.401 195.34C227.301 194.03 231.801 193.68 233.241 197.17C235.721 203.23 221.3 210.44 216.141 211.77Z" fill="#E98862"/>
<path d="M152.6 235.044C150.494 235.044 148.434 234.434 146.667 233.288C144.901 232.142 143.504 230.509 142.646 228.586L112.095 160.186L132 151.292L158.618 210.892L209.863 195.163L216.263 216.007L155.8 234.562C154.763 234.881 153.685 235.044 152.6 235.044Z" fill="#367CFF"/>
<path d="M281.456 148.717C281.456 148.717 274.584 142.879 281.75 137.888C283.783 136.472 288.64 134.133 288.891 138.797C289.074 142.189 281.456 148.717 281.456 148.717Z" fill="#E98862"/>
<path d="M514.211 51.055C514.224 64.2588 509.107 76.9512 499.941 86.455C493.06 71.066 479.158 60.555 463.148 60.555C447.138 60.555 433.248 71.065 426.355 86.455C420.563 80.4339 416.337 73.0835 414.047 65.0485C411.758 57.0136 411.475 48.5396 413.224 40.3699C414.973 32.2002 418.7 24.5845 424.078 18.1907C429.455 11.797 436.32 6.82063 444.07 3.69817C451.819 0.575714 460.216 -0.597428 468.524 0.281655C476.833 1.16074 484.798 4.06519 491.723 8.74021C498.647 13.4152 504.318 19.718 508.239 27.0956C512.16 34.4732 514.211 42.7002 514.211 51.055Z" fill="#C1D8ED"/>
<path d="M463.15 56.315C474.313 56.315 483.363 47.2653 483.363 36.102C483.363 24.9387 474.313 15.889 463.15 15.889C451.987 15.889 442.937 24.9387 442.937 36.102C442.937 47.2653 451.987 56.315 463.15 56.315Z" fill="white"/>
<path d="M499.941 86.458C495.176 91.4073 489.462 95.3443 483.14 98.0336C476.818 100.723 470.018 102.109 463.148 102.109C456.278 102.109 449.478 100.723 443.156 98.0336C436.834 95.3443 431.12 91.4073 426.355 86.458C433.244 71.069 447.138 60.558 463.148 60.558C479.158 60.558 493.06 71.069 499.941 86.458Z" fill="white"/>
<path d="M542.806 219.292C542.819 229.108 539.018 238.545 532.206 245.612C527.086 234.172 516.746 226.352 504.846 226.352C492.946 226.352 482.606 234.172 477.486 245.612C473.178 241.135 470.034 235.67 468.331 229.695C466.627 223.721 466.416 217.419 467.716 211.344C469.016 205.268 471.787 199.605 475.786 194.85C479.785 190.095 484.889 186.394 490.652 184.072C496.415 181.75 502.659 180.878 508.837 181.532C515.016 182.186 520.939 184.346 526.088 187.823C531.237 191.3 535.453 195.988 538.368 201.474C541.283 206.961 542.807 213.079 542.806 219.292Z" fill="#D7E8F4"/>
<path d="M504.843 223.201C513.144 223.201 519.873 216.472 519.873 208.171C519.873 199.87 513.144 193.141 504.843 193.141C496.542 193.141 489.813 199.87 489.813 208.171C489.813 216.472 496.542 223.201 504.843 223.201Z" fill="white"/>
<path d="M532.206 245.612C528.663 249.293 524.414 252.221 519.713 254.221C515.011 256.221 509.955 257.252 504.846 257.252C499.737 257.252 494.681 256.221 489.979 254.221C485.278 252.221 481.029 249.293 477.486 245.612C482.606 234.172 492.936 226.352 504.846 226.352C516.756 226.352 527.086 234.172 532.206 245.612Z" fill="white"/>
<path d="M657.673 124.5C657.687 137.513 652.646 150.023 643.613 159.39C636.833 144.23 623.133 133.87 607.363 133.87C591.593 133.87 577.893 144.23 571.113 159.39C565.405 153.458 561.241 146.216 558.984 138.3C556.728 130.383 556.448 122.034 558.17 113.984C559.892 105.935 563.563 98.4307 568.861 92.1304C574.16 85.8301 580.923 80.9262 588.558 77.8488C596.192 74.7713 604.466 73.6144 612.652 74.4796C620.838 75.3447 628.687 78.2054 635.51 82.8108C642.333 87.4161 647.922 93.6254 651.786 100.894C655.65 108.162 657.672 116.268 657.673 124.5Z" fill="#D7E8F4"/>
<path d="M607.362 129.685C618.361 129.685 627.278 120.768 627.278 109.769C627.278 98.7697 618.361 89.853 607.362 89.853C596.363 89.853 587.446 98.7697 587.446 109.769C587.446 120.768 596.363 129.685 607.362 129.685Z" fill="white"/>
<path d="M643.613 159.389C638.918 164.265 633.288 168.144 627.06 170.794C620.831 173.443 614.132 174.809 607.363 174.809C600.594 174.809 593.895 173.443 587.666 170.794C581.438 168.144 575.808 164.265 571.113 159.389C577.893 144.229 591.583 133.869 607.363 133.869C623.143 133.869 636.833 144.229 643.613 159.389Z" fill="white"/>
<path d="M329.192 111.251L349.118 89.853V98.505L369.251 83.245L346.934 109.769L344.325 102.53L329.192 111.251Z" fill="#C1D8ED"/>
<path d="M358.158 195.984L386.986 191.095L381.729 197.967L406.991 198.08L373.15 205.587L375.477 198.252L358.158 195.984Z" fill="#C1D8ED"/>
<path d="M588.953 553.391H479.638C471.619 546.991 471.066 532.573 479.377 526.134C485.784 521.172 495.469 522.499 501.49 527.661C500.365 523.818 500.343 519.737 501.426 515.882C503.384 508.94 507.736 501.888 514.382 499.082C531.34 491.926 543.39 506.919 545.805 515.302C550.146 508.916 559.859 505.542 565.955 509.84C573.678 515.284 573.329 523.866 567.168 530.027C575.376 528.497 581.558 529.677 587.251 535.788C591.585 540.438 592.249 548.364 588.953 553.391Z" fill="#DEE8F5"/>
<path d="M674.749 517.111C674.749 517.111 669.949 339.751 623.914 336.785C577.879 333.819 661.665 528.611 661.665 528.611" fill="#DEE8F5"/>
<path d="M676.8 504.989C676.8 504.989 734.189 377.375 695.979 351.529C657.769 325.683 659.7 508.289 659.7 508.289" fill="#8DDBE0"/>
<path d="M688.81 493.997H637.213V553.391H688.81V493.997Z" fill="#0CBC8B"/>
</g>
<defs>
<clipPath id="clip0_602_145">
<rect width="789.5" height="553.391" fill="white"/>
</clipPath>
</defs>
</svg>
