<svg width="289" height="297" viewBox="0 0 289 297" fill="none" xmlns="http://www.w3.org/2000/svg">
<path d="M98.463 226.406C101.088 225.488 103.778 224.76 106.511 224.229L106.842 225.426C106.879 225.567 106.966 225.69 107.087 225.773C107.209 225.856 107.357 225.892 107.503 225.877L118.323 224.633C121.3 217.931 126.765 207.777 126.844 207.621C126.765 205.086 126.844 202.956 126.844 200.53C120.654 202.801 109.204 207.108 103.219 209.86C103.084 209.946 102.98 210.073 102.92 210.22C102.861 210.368 102.85 210.53 102.889 210.684C102.889 210.684 102.999 211.073 103.141 211.633C100.211 211.633 91.4385 211.213 89.328 213.188C88.9998 213.639 88.8386 214.188 88.8712 214.743C88.7452 216.889 89.832 233.558 91.5645 238.457C92.4622 241.022 94.3522 240.743 95.6437 238.286C97.1385 234.586 98.0982 230.696 98.4945 226.732C98.4945 226.53 98.4472 226.545 98.463 226.406ZM96.6517 212.488C98.5732 212.333 99.1717 212.364 103.298 212.239C104.038 215.007 105.566 220.699 106.354 223.607C103.575 224.031 100.832 224.66 98.148 225.488C97.3115 221.199 96.8112 216.853 96.6517 212.488Z" fill="#2E3032"/>
<path d="M243.426 76.3946C243.819 75.8504 243.315 75.1506 242.89 74.6064C244.095 73.3833 245.431 72.2934 246.875 71.3564C249.312 70.1574 251.539 68.5829 253.474 66.6915C254.277 65.8673 255.789 64.1724 255.222 63.1772C254.655 62.1819 253.647 62.1197 252.277 62.6951C252.87 62.0799 253.356 61.37 253.71 60.5959C254.151 59.3829 253.112 58.4033 250.86 59.3052C251.679 58.0145 251.868 56.6617 250.482 56.0086C249.363 55.4799 247.725 56.7395 246.78 57.5636C244.924 59.1644 243.183 60.8893 241.567 62.7262C240.575 60.6736 239 58.31 237.031 59.0564C235.062 59.8028 236.59 63.146 237.598 64.9654L234.023 67.4067C233.482 67.1186 232.872 66.9844 232.259 67.018C228.195 67.7022 209.532 81.7283 207.642 81.7283C206.193 81.7283 185.497 71.9318 167.605 69.1017C167.571 68.9957 167.507 68.9018 167.42 68.8303C167.333 68.7587 167.229 68.7127 167.117 68.6974C163.996 68.1715 160.833 67.9374 157.667 67.9977C157.571 68.0042 157.478 68.031 157.394 68.0765C157.309 68.1223 157.237 68.1857 157.179 68.262H155.856C155.541 67.0025 154.375 64.0946 153.966 62.975C155.037 62.0575 156.517 61.5911 157.289 60.1138C158.706 57.377 158.643 52.6187 158.25 49.5709C160.029 48.2336 160.077 46.0877 159.667 43.8951C159.51 43.0088 159.021 41.0028 158.265 40.5052C157.84 40.2253 156.942 40.5053 156.171 40.7852C155.399 39.0125 155.399 39.8211 155.714 39.1058C155.861 38.7761 155.946 38.4232 155.966 38.0639C156.801 38.3127 158.533 36.6644 157.935 34.4874C157.621 33.7082 157.237 32.9587 156.785 32.2482C157.005 31.7195 157.478 31.0819 155.997 29.1382C155.36 28.4591 154.532 27.9827 153.619 27.7698H152.895C152.372 27.0209 151.605 26.4718 150.721 26.2148C149.388 25.8789 147.973 26.0746 146.784 26.759C146.469 26.9923 146.217 27.3033 145.902 27.521C145.189 27.0941 144.373 26.8685 143.539 26.8685C142.706 26.8685 141.889 27.0941 141.177 27.521C140.759 27.6824 140.38 27.9256 140.061 28.2355C139.742 28.5456 139.489 28.916 139.318 29.3248C138.546 29.0619 137.727 28.9606 136.914 29.0277C136.101 29.0947 135.31 29.3282 134.593 29.7136C131.872 31.1702 129.837 33.6206 128.923 36.54C128.898 36.9802 128.898 37.4215 128.923 37.8618H128.75C126.387 37.5197 123.379 43.0555 125.789 47.3628C126.072 47.876 126.435 48.358 126.781 48.9178C127.789 50.4728 127.395 50.9393 129.648 52.8364C130.309 53.3962 130.419 53.3495 130.829 53.6916C131.238 54.0337 131.081 53.8627 131.317 54.7335C131.446 55.2464 131.677 55.7293 131.996 56.1536C132.315 56.578 132.716 56.9357 133.176 57.2059C133.344 58.727 134 60.1548 135.05 61.28C135.382 61.6476 135.77 61.962 136.2 62.213C136.315 62.2775 136.445 62.3148 136.578 62.3219C137.05 65.2142 137.633 68.9773 137.885 70.579L136.483 71.3253C134.65 72.0539 132.866 72.9007 131.144 73.86C131.009 73.9524 130.913 74.0907 130.876 74.2487C129.207 75.1195 127.632 75.9437 126.734 76.4724C114.229 83.7964 78.7122 132.079 78.3499 134.287C78.3101 134.414 78.3101 134.549 78.3499 134.676C78.8591 135.478 79.4793 136.205 80.1927 136.837C79.973 137.234 79.7087 137.603 79.4052 137.942C76.2552 139.979 71.5304 143.011 68.9947 145.717C68.8166 145.873 68.6831 146.073 68.6075 146.296C68.5316 146.519 68.5159 146.757 68.562 146.988C68.6081 147.218 68.7143 147.434 68.8704 147.613C69.0265 147.79 69.2266 147.925 69.4512 148.002C69.9237 148.158 70.0027 148.111 73.0739 146.447C72.2297 147.178 71.5393 148.066 71.0422 149.06C70.8374 149.915 71.6249 150.413 72.6172 150.257C73.1753 150.112 73.7068 149.881 74.1922 149.573C73.9078 150.006 73.7569 150.511 73.7569 151.027C73.7569 151.543 73.9078 152.048 74.1922 152.481C75.7672 154.44 79.8937 148.267 82.0672 146.743C82.9492 147.847 84.1459 150.428 86.0517 149.744C87.7054 149.138 85.8942 145.545 86.0517 144.504C86.6925 143.896 87.3769 143.335 88.0994 142.824C89.3142 143.713 90.7033 144.344 92.1784 144.675C94.7772 144.675 121.899 117.649 123.962 115.487C123.222 122.36 119.489 151.859 120.276 157.597C120.639 160.194 126.954 160.567 129.616 160.707C128.813 179.367 128.277 207.637 128.136 207.932C123.962 216.811 122.828 219.237 121.426 221.927C118.875 226.748 108.133 244.537 106.92 248.58C106.747 249.217 106.731 249.466 107.409 250.648C105.379 252.755 103.496 254.994 101.77 257.35C100.904 258.905 104.621 273.398 107.251 278.529C107.85 279.68 108.826 281.453 110.133 281.407C114.071 281.266 114.055 267.302 113.945 263.399C113.944 263.279 113.9 263.163 113.819 263.072C114.533 262.02 115.311 261.013 116.15 260.056C116.651 260.397 117.177 260.697 117.725 260.958C118.26 261.191 118.859 260.787 119.3 260.429C124.545 256.355 152.832 221.554 158.895 205.133C161.652 197.638 165.321 187.282 166.361 179.942C166.996 175.302 167.055 170.602 166.534 165.947C166.534 165.881 166.561 165.818 166.608 165.771C166.655 165.724 166.719 165.698 166.786 165.698C166.853 165.698 166.918 165.724 166.965 165.771C167.012 165.818 167.038 165.881 167.038 165.947C167.827 170.628 167.981 175.392 167.495 180.113C166.329 190.298 158.187 211.524 153.84 219.33C157.588 218.646 165.211 217.153 168.897 216.065C181.182 212.379 192.522 201.386 193.514 189.039C193.835 183.222 193.835 177.393 193.514 171.576C193.408 163.546 192.351 155.556 190.364 147.769C193.703 145.981 196.758 143.882 197.751 141.953C199.877 137.833 194.254 114.119 193.026 107.464C199.751 108.194 211.201 109.516 216.54 105.395C222.651 100.544 235.85 86.8909 243.426 76.3946ZM113.094 262.544C110.259 260.849 106.29 256.821 105.692 253.665C106.338 252.856 107.015 252.11 107.645 251.27C109.779 254.486 112.441 257.329 115.52 259.682C114.655 260.588 113.845 261.543 113.094 262.544ZM238.307 65.4008C238.388 65.3496 238.448 65.2693 238.47 65.1769C238.493 65.0841 238.48 64.9863 238.433 64.9032C237.882 63.8924 236.228 60.3315 237.378 59.9272C238.039 59.6784 238.622 60.0827 239.11 60.6269C239.856 61.5608 240.436 62.6123 240.827 63.7369C240.856 63.8283 240.91 63.9103 240.983 63.9739C241.055 64.0375 241.144 64.0802 241.239 64.098C241.335 64.1155 241.433 64.107 241.525 64.0737C241.616 64.0403 241.696 63.9829 241.756 63.908C243.331 62.1819 247.017 58.2478 249.096 57.1904C250.671 56.3818 251.049 57.8746 247.19 61.3578C246.304 62.025 245.452 62.7361 244.638 63.4881C244.594 63.5492 244.569 63.6227 244.569 63.6982C244.569 63.7734 244.594 63.8469 244.638 63.908C244.638 64.3123 244.969 64.7632 245.536 64.3434C246.905 63.1568 248.353 62.0609 249.867 61.0623C250.641 60.5201 251.539 60.1777 252.482 60.0672C252.009 61.4977 247.615 65.3853 247.237 65.8206C247.118 65.927 247.044 66.0751 247.034 66.2337C247.025 66.3923 247.077 66.5487 247.182 66.6688C247.288 66.789 247.437 66.8636 247.597 66.8766C247.758 66.8896 247.917 66.8399 248.04 66.7381C249.789 65.6185 252.844 63.0061 253.899 63.3949C254.955 63.7836 251.82 66.6759 251.033 67.3601C246.513 71.2321 247.678 68.744 242.449 73.9999C240.173 71.5382 237.56 69.4028 234.684 67.6555L238.307 65.4008ZM169.873 139.776C169.605 137.631 169.275 135.314 168.865 132.903L169.542 132.017C172.692 128.021 173.637 121.661 173.338 116.669C175.023 123.962 176.362 131.131 177.386 138.253L169.873 139.776ZM146.453 86.5332C142.311 83.4232 135.648 78.0585 131.774 74.3887L138.074 71.2787C143.86 76.6138 148.811 82.7659 152.769 89.5344C158.821 100.51 163.309 112.257 166.109 124.444L143.649 93.0798L146.579 87.0775C146.618 86.985 146.626 86.883 146.604 86.7857C146.581 86.6879 146.529 86.6 146.453 86.5332ZM157.1 68.8996C157.194 69.0706 158.281 71.3564 159.935 75.3528C159.935 75.5238 159.636 79.4113 159.494 80.7797C157.483 79.9932 155.588 78.9474 153.855 77.6697C154.202 76.3169 155.761 70.1746 155.871 68.7907L157.1 68.8996ZM151.509 85.6002C151.619 85.3203 151.729 84.9471 151.855 84.5117L152.91 85.056C153.509 85.4447 153.273 84.2629 153.808 87.6839C153.808 88.2593 153.966 88.8968 153.997 89.5966C153.273 88.3059 152.375 86.922 151.524 85.6002H151.509ZM150.627 84.294C147.651 80.1272 144.264 76.2623 140.515 72.7559L152.375 77.8408C151.918 78.9137 151.257 82.1948 150.642 84.294H150.627ZM162.738 93.4063C161.163 89.1612 159.951 84.4184 159.352 83.1744C159.388 82.7865 159.388 82.3961 159.352 82.0082C159.581 82.0919 159.818 82.1442 160.061 82.1637C160.213 82.1654 160.36 82.1128 160.476 82.0155C160.592 81.9186 160.669 81.7834 160.691 81.635C160.817 81.1218 161.022 78.525 161.053 77.9496C165.635 89.3704 169.46 101.073 172.503 112.984C163.605 94.2927 164.975 99.7041 162.754 93.4063H162.738ZM175.764 123.091C172.173 106.095 165.857 84.9005 158.675 69.195C161.313 69.1964 163.946 69.4045 166.55 69.817C167.889 81.635 166.77 81.2307 167.668 81.6972C168.566 82.1637 173.968 84.3096 174.771 84.6361C174.693 85.8335 175.827 120.075 175.779 123.091H175.764ZM157.635 41.5004C158.457 43.2695 158.746 45.2339 158.47 47.1606C158.342 47.6512 158.079 48.0968 157.709 48.4479C157.339 48.7993 156.878 49.0425 156.377 49.1505C155.877 49.2585 155.354 49.2271 154.87 49.0597C154.386 48.8924 153.959 48.5955 153.635 48.2025C152.883 46.6396 152.318 44.9958 151.95 43.3042C152.375 42.76 156.911 41.6715 157.635 41.5004ZM135.963 57.0504C135.389 56.7918 134.799 56.5636 134.199 56.3663C133.796 56.2028 133.438 55.9506 133.15 55.6289C132.861 55.3071 132.651 54.9246 132.535 54.5101C132.42 54.096 132.401 53.6611 132.483 53.2387C132.564 52.8166 132.741 52.4182 133.002 52.0745C133.995 51.2503 134.892 51.297 135.711 52.5254C136.231 53.474 136.215 53.5517 136.452 53.645C136.52 53.6744 136.593 53.6894 136.667 53.6885C136.741 53.6877 136.814 53.6713 136.881 53.6405C136.948 53.6097 137.008 53.5647 137.056 53.5093C137.104 53.4539 137.14 53.3888 137.16 53.3184C137.394 52.3453 137.431 51.336 137.271 50.3484C137.082 49.2754 137.05 44.5171 137.082 44.3617C137.542 44.6011 138.058 44.7139 138.578 44.6882C141.429 44.5793 141.996 43.1332 143.13 41.9514C144.437 42.0758 144.705 42.6978 146.185 41.9514C146.878 41.5621 147.515 41.0809 148.075 40.5208C148.528 40.7037 148.965 40.9223 149.382 41.1739C150.326 41.622 151.391 41.7597 152.42 41.5666C153.448 41.3735 154.388 40.8598 155.1 40.101C155.273 40.4275 155.43 40.754 155.572 41.0961C154.125 41.5397 152.762 42.2174 151.54 43.1021C151.272 43.4287 151.666 45.2013 151.761 45.6212C150.442 45.7852 149.164 46.1912 147.996 46.8185C147.76 46.0099 147.24 44.5016 146.421 44.0817C146.175 44.0074 145.912 44.0074 145.665 44.0817C144.248 44.2994 139.161 45.8078 138.546 46.6319C138.011 47.2073 139.539 51.6546 140.011 52.3854C141.822 55.1533 147.13 54.3447 148.122 51.1103C148.368 50.025 148.368 48.8991 148.122 47.8138C148.579 47.8138 149.949 47.3317 150.107 47.2851C151.194 49.6953 151.509 49.8352 152.769 52.4321C152.595 52.572 152.312 52.8053 152.076 52.9608C150.957 53.6917 150.721 53.5672 150.784 53.8782C150.802 53.9399 150.843 53.993 150.898 54.0272C150.953 54.0617 151.019 54.075 151.083 54.0648C151.745 53.9715 152.391 53.794 153.005 53.5362C153.373 53.4007 153.676 53.1344 153.855 52.7897C154.296 51.8101 151.855 48.1248 150.894 47.0207C151.083 47.0207 151.524 46.7097 151.855 46.5387C152.296 48.2803 152.595 49.6486 154.296 50.3328C154.789 50.5161 155.312 50.5995 155.837 50.5783C156.362 50.5568 156.877 50.431 157.352 50.2085C157.604 52.9453 157.557 57.3925 156.234 59.8183C155.556 61.0779 153.887 61.5599 152.816 62.6018C152.501 62.8972 152.706 63.3171 152.816 63.7681C154.564 68.573 154.596 68.5574 154.501 69.1794C154.038 71.761 153.391 74.3073 152.564 76.7989C152.17 76.6279 147.744 74.311 139.082 70.9832C138.814 69.2261 137.381 59.8494 136.924 58.1234C136.956 57.517 136.877 57.377 135.963 56.9727V57.0504ZM146.988 50.706C146.484 52.401 144.106 53.1318 142.405 52.6653C140.704 52.1989 140.594 51.3436 139.791 49.3221C139.414 48.55 139.154 47.7272 139.019 46.8808C139.539 46.321 145.224 45.1702 145.933 45.0614C146.927 46.7405 147.301 48.708 146.988 50.6283V50.706ZM85.3589 144.068C84.7604 144.644 85.5634 146.525 85.6894 148.158C85.6894 148.298 85.6894 148.904 85.5949 148.951C84.7287 149.231 83.9254 147.94 83.4372 147.163C82.9489 146.385 82.4607 145.328 81.6889 145.608C80.1139 146.339 76.4599 151.128 75.0267 151.626C74.3022 150.257 78.4447 146.354 78.5864 146.136C78.6471 146.037 78.6789 145.921 78.6784 145.806C78.6778 145.689 78.6449 145.574 78.5833 145.476C78.5214 145.376 78.4332 145.296 78.3284 145.241C78.2233 145.188 78.1056 145.165 77.9879 145.172C77.7044 145.172 77.5152 145.421 77.0742 145.81C75.7328 147.102 74.1976 148.182 72.5224 149.013C74.0413 147.292 75.6667 145.667 77.3892 144.146C77.4745 144.059 77.5343 143.952 77.5627 143.835C77.5627 143.835 77.2319 143.011 76.5862 143.337C75.6727 143.835 71.2309 146.37 69.8294 147.023C69.6404 146.898 69.7507 146.712 69.8294 146.525C72.0499 143.835 76.9327 140.569 79.9249 138.501C80.2763 138.144 80.5686 137.735 80.7912 137.288C82.8639 139.192 85.0746 140.944 87.4062 142.529C86.688 142.994 86.0038 143.508 85.3589 144.068ZM122.009 158.203C121.662 157.985 121.41 157.783 121.363 157.503C120.497 151.159 125.316 115.207 125.238 113.792C125.238 113.709 125.221 113.627 125.188 113.551C125.156 113.474 125.108 113.405 125.048 113.347C124.987 113.289 124.916 113.244 124.837 113.213C124.76 113.183 124.676 113.168 124.592 113.17C123.789 113.17 125.206 113.17 105.141 132.141C103.818 133.37 93.7062 142.918 92.0209 143.555C89.7057 143.384 80.9959 136.526 79.5784 134.365C82.3189 128.891 115.551 83.8586 127.049 76.97C127.931 76.4413 129.443 75.6171 131.097 74.7463C131.669 75.279 132.284 75.7625 132.939 76.1925C136.593 79.6135 141.681 83.8742 145.539 87.0775L142.531 92.971C142.485 93.049 142.462 93.1375 142.462 93.2277C142.462 93.3176 142.485 93.4061 142.531 93.4841C166.959 128.083 166.597 127.694 166.755 127.694C168.32 135.689 169.294 143.786 169.668 151.921C169.668 154.114 169.668 153.927 169.763 153.771C169.857 153.616 169.763 153.88 169.763 153.88C165.951 157.986 128.23 161.811 122.009 158.203ZM209.075 106.686C201.94 107.666 193.876 106.204 192.317 106.142C191.451 101.996 189.724 98.0733 187.245 94.6193C187.207 94.5689 187.152 94.5344 187.089 94.5231C187.027 94.5115 186.963 94.5237 186.91 94.557C186.856 94.5904 186.816 94.6427 186.799 94.7032C186.784 94.7637 186.79 94.8282 186.82 94.8836C187.734 96.7185 190.789 104.633 191.545 106.562C191.309 107.308 198.664 137.335 196.585 141.378C194.727 145.032 183.906 149.635 180 150.957C179.229 142.3 177.966 133.692 176.22 125.175C176.756 120.697 176.063 94.075 175.858 84.2318C175.852 84.1176 175.813 84.0071 175.747 83.9138C175.68 83.8199 175.588 83.7473 175.48 83.7031L168.408 80.7642C168.377 77.069 168.14 73.3779 167.7 69.7081C185.355 72.7248 205.925 82.6924 207.642 82.7079C210.13 82.7079 228.621 68.7129 232.448 68.1531C234.149 67.8888 241.457 74.1865 242.307 75.9281C234.842 86.2222 221.722 99.7507 215.643 104.431C213.684 105.724 211.423 106.5 209.075 106.686Z" fill="#2E3032"/>
<path d="M145.366 47.5961C145.346 47.494 145.307 47.3967 145.249 47.3099C145.191 47.2229 145.117 47.1479 145.03 47.0894C144.942 47.0312 144.845 46.9902 144.741 46.969C144.639 46.9478 144.533 46.9469 144.429 46.9664C144.325 46.9856 144.227 47.0249 144.139 47.0821C144.051 47.1392 143.975 47.2124 143.916 47.2983C143.857 47.3843 143.815 47.481 143.794 47.5828C143.773 47.6845 143.771 47.7894 143.791 47.8915C144.106 49.4465 144.169 49.8041 144.862 49.8041C144.993 49.8044 145.122 49.7728 145.238 49.7117C145.353 49.6503 145.451 49.5619 145.522 49.4536C145.594 49.3456 145.638 49.2215 145.65 49.0925C145.66 48.9636 145.639 48.8341 145.587 48.7156C145.539 48.4668 145.398 47.736 145.366 47.5961ZM150.186 57.8902C151.209 58.1856 152.186 57.7036 152.154 57.4548C152.123 57.206 152.154 57.3304 150.768 56.8172C149.839 56.4751 148.815 55.2622 148.453 55.4488C148.091 55.6354 148.642 56.6306 148.768 56.8172C149.105 57.3219 149.604 57.6999 150.186 57.8902ZM178.992 43.1176C176.929 51.6546 175.417 58.9009 175.165 60.347C174.997 60.9761 174.966 61.6332 175.071 62.2752C175.905 64.0324 186.694 67.5 188.064 66.8158C189.435 66.1316 192.994 58.2167 197.136 50.053C199.674 50.133 202.213 49.9506 204.712 49.5087C207.344 49.032 209.905 48.2328 212.335 47.1296C217.659 44.7038 223.486 34.3164 224.274 29.0916C224.864 23.4189 223.648 17.7059 220.793 12.7485C207.579 -9.87675 168.818 2.2989 171.968 27.4277C172.867 33.1775 175.291 38.5906 178.992 43.1176ZM188.6 61.6377C188.6 61.8865 188.316 61.8554 187.025 61.6377C184.383 61.31 181.825 60.5034 179.481 59.2585C178.378 58.6676 178.079 58.5433 178.189 58.2789C178.299 58.0145 178.536 58.1079 180.237 58.5744C180.394 58.5744 185.277 60.1294 186.678 60.6114C188.49 61.42 188.6 61.42 188.6 61.6377ZM188.316 36.3378C189.998 36.4238 191.674 36.0814 193.183 35.3427C194.585 36.0133 196.102 36.4196 197.656 36.54C195.01 41.4072 189.639 51.3281 187.907 56.6151L181.229 54.7957C182.804 50.9704 186.285 42.0136 188.285 36.3378H188.316ZM187.765 35.0472C186.589 34.8719 185.504 34.3206 184.677 33.4781C183.849 32.6353 183.324 31.5479 183.182 30.3822C182.741 27.2722 184.757 23.789 187.797 24.6132C189.702 25.1263 189.939 26.6191 189.608 28.5007C189.324 29.8691 188.301 33.3056 187.734 34.985L187.765 35.0472ZM192.049 31.3152C192.217 30.2977 192.604 29.3273 193.183 28.4695C193.459 28.0019 193.862 27.62 194.346 27.3672C194.83 27.1142 195.376 27.0005 195.924 27.039C197.089 27.3811 197.593 29.5581 196.632 30.9265C195.708 32.1362 194.56 33.1603 193.246 33.9431C192.793 33.6813 192.434 33.2892 192.214 32.8193C191.995 32.3497 191.926 31.8247 192.018 31.3152H192.049ZM177.575 11.5512C184.631 3.1697 197.908 -0.157999 207.5 3.2941C212.711 5.06004 217.093 8.63567 219.832 13.355C222.548 18.0722 223.709 23.5066 223.155 28.905C222.431 33.741 216.855 43.7863 211.957 46.01C207.479 48.0269 202.593 49.0054 197.672 48.8711C197.136 48.8711 196.569 48.8711 196.365 49.2444C195.435 51.1103 193.734 54.7179 192.065 58.1078C190.911 57.5582 189.717 57.1005 188.49 56.7395C190.317 51.5769 196.081 41.4383 198.822 36.5245C201.196 36.7252 203.583 36.3183 205.752 35.3427C206.337 35.0382 206.823 34.575 207.152 34.0073C207.48 33.4399 207.639 32.7916 207.608 32.1385C207.576 31.4857 207.356 30.8552 206.975 30.3208C206.593 29.7868 206.065 29.3709 205.452 29.1227C203.011 27.9408 200.822 30.771 199.546 33.1501C199.2 33.7721 198.806 34.5029 198.365 35.3271C197.091 35.2445 195.834 34.9881 194.632 34.5652C195.829 33.7339 196.892 32.7274 197.782 31.5795C198.281 30.836 198.533 29.9581 198.505 29.067C198.477 28.1755 198.169 27.3149 197.625 26.6036C197.197 26.113 196.602 25.7933 195.953 25.7045C195.303 25.6157 194.643 25.7641 194.097 26.1215C192.993 26.7907 192.11 27.7599 191.55 28.9129C190.992 30.0658 190.783 31.3537 190.947 32.6214C191.117 33.337 191.509 33.9833 192.065 34.4719C191.032 34.8942 189.923 35.106 188.805 35.0938C189.435 33.2589 190.458 29.9468 190.726 28.594C190.894 27.8227 190.931 27.0293 190.836 26.2459C190.714 25.5736 190.398 24.9502 189.926 24.4509C189.454 23.9513 188.845 23.5976 188.175 23.4314C184.347 22.3584 181.528 26.5414 182.079 30.4444C182.234 31.8431 182.843 33.1549 183.813 34.1857C184.783 35.2166 186.064 35.9112 187.466 36.1668C185.45 41.7648 182.3 50.7994 180.725 54.6558L177.26 53.7694C179.481 42.76 179.748 43.0243 179.433 42.8844C175.854 38.3797 173.565 33.0099 172.803 27.3344C172.431 24.5201 172.665 21.6603 173.487 18.9412C174.308 16.2217 175.702 13.7038 177.575 11.5512ZM199.436 35.4204C200.538 33.4455 202.743 29.1227 204.885 30.18C205.313 30.3505 205.687 30.6333 205.964 30.9977C206.243 31.3621 206.413 31.7944 206.46 32.2482C206.429 34.985 202.113 35.467 199.373 35.4204H199.436ZM259.727 42.278C261.625 41.1759 263.867 40.7996 266.027 41.2206C268.4 41.2624 270.667 42.1991 272.362 43.8386C274.059 45.4781 275.053 47.6959 275.145 50.0374C273.719 49.22 272.05 48.9124 270.421 49.1666C266.468 49.5087 261.302 51.6235 261.995 55.3866C262.562 58.4966 266.72 58.0768 269.87 57.2371C273.02 56.3974 275.523 54.8735 276.17 51.8723C279.996 54.6247 280.895 59.4451 281.052 64.1568C281.052 64.2227 281.078 64.286 281.127 64.3327C281.173 64.3793 281.239 64.4056 281.304 64.4056C281.37 64.4056 281.436 64.3793 281.482 64.3327C281.531 64.286 281.556 64.2227 281.556 64.1568C281.665 58.8853 280.706 53.7228 276.342 50.7216C276.388 49.3716 276.153 48.0266 275.657 46.7679C275.162 45.5095 274.409 44.3636 273.452 43.3995C272.494 42.4357 271.346 41.674 270.081 41.1603C268.816 40.6469 267.458 40.3922 266.09 40.412C263.903 40.0967 261.675 40.5479 259.79 41.6871C259.207 41.967 259.475 42.3868 259.727 42.278ZM274.091 53.4273C272.311 55.7287 267.271 56.9261 264.94 56.5373C264.074 56.3974 263.365 56.0397 263.176 55.1533C262.609 52.0433 268.043 50.3484 271.287 50.2396C272.608 50.1395 273.925 50.4731 275.036 51.1881C274.916 52.0012 274.592 52.7714 274.091 53.4273ZM252.513 24.1C254.199 22.0474 253.065 18.4709 248.355 18.4554C246.528 18.4554 245.646 20.2903 245.772 22.0474C246.056 26.2304 250.828 26.106 252.513 24.1ZM246.875 21.9697C246.875 20.9434 247.363 19.6061 248.45 19.6216C250.986 19.6216 252.151 20.7879 252.151 22.0785C252.088 25.0175 246.67 26.5414 246.875 21.9697ZM246.229 198.26C232.385 192.802 225.959 219.221 214.65 241.924C214.578 242.878 214.611 243.838 214.745 244.786C214.745 247.165 215.013 262.917 216.414 264.705C216.792 265.42 218.383 264.705 219.123 264.254C225.41 260.412 231.335 256.019 236.826 251.13C236.874 251.077 236.908 251.016 236.93 250.948C236.951 250.881 236.959 250.811 236.952 250.741C239.882 246.62 250.86 225.161 253.521 214.401C255.38 206.781 253.537 201.106 246.229 198.26ZM251.175 218.009C243.763 217.07 236.597 214.76 230.054 211.198C233.739 204.309 238.291 196.456 245.804 199.411C254.167 202.692 253.994 209.487 251.175 217.962V218.009ZM224.967 258.439C224.482 258.038 223.955 257.694 223.392 257.412C221.263 256.344 218.804 256.11 216.509 256.759C216.351 254.909 215.454 242.873 215.454 242.764C227.25 247.025 223.612 245.174 235.299 250.912C234.07 252.063 229.455 255.251 224.967 258.407V258.439ZM233.094 213.437C234.629 214.265 236.207 215.018 237.819 215.692C234.208 221.29 231.019 227.143 228.274 233.201C225.628 238.659 225.723 238.628 223.029 244.583C221.454 244.086 219.879 243.619 218.304 243.153C220.005 239.81 232.101 215.365 233.094 213.406V213.437ZM223.644 244.739C228.762 235.673 233.976 224.4 238.449 215.894C240.024 216.547 241.599 217.075 243.174 217.542C242.339 219.097 239.898 223.233 239.252 224.431C238.606 225.628 232.133 238.223 231.676 239.188C230.952 240.743 228.967 245.081 228.353 246.465C226.746 245.765 225.203 245.237 223.581 244.708L223.644 244.739ZM228.92 246.667C229.881 244.941 233.834 237.695 234.322 236.762C235.062 235.316 243.315 218.662 243.772 217.697C245.221 218.102 246.749 218.444 247.725 218.63C244.843 226.405 236.543 241.38 233.55 248.766C230.826 247.507 230.211 247.196 228.857 246.636L228.92 246.667ZM229.881 211.649L232.7 213.204C227.018 222.756 222.07 232.715 217.895 242.997L215.532 242.282C224.683 223.031 225.108 220.512 229.818 211.617L229.881 211.649ZM236.37 250.119L233.991 249C236.559 244.024 244.591 231.257 248.261 218.739C249.143 218.895 250.009 219.035 250.844 219.144C246.796 229.806 241.937 240.151 236.307 250.088L236.37 250.119ZM187.025 260.211C187.652 259.698 188.101 259.003 188.307 258.225C188.513 257.446 188.467 256.623 188.175 255.873C188.041 254.789 187.538 253.783 186.748 253.019C185.958 252.256 184.928 251.781 183.828 251.673C182.728 251.564 181.623 251.828 180.696 252.422C179.768 253.016 179.073 253.904 178.725 254.94C176.709 253.649 174.519 252.281 172.425 250.974C174 248.906 178.63 249.824 179.103 251.519C179.113 251.585 179.15 251.645 179.204 251.683C179.259 251.722 179.327 251.739 179.394 251.729C179.461 251.718 179.52 251.682 179.561 251.629C179.6 251.574 179.617 251.507 179.607 251.441C179.37 248.735 173.669 247.149 171.369 250.337C169.338 249.109 166.818 247.616 164.707 246.481C166.518 244.926 170.566 245.796 171.007 247.414C171.028 247.469 171.068 247.515 171.12 247.544C171.171 247.573 171.233 247.583 171.291 247.572C171.35 247.56 171.402 247.529 171.44 247.482C171.477 247.437 171.497 247.378 171.495 247.32C171.291 244.801 166.014 243.106 163.62 245.874C162.618 245.319 161.562 244.861 160.47 244.506C160.271 244.424 160.052 244.401 159.839 244.44C159.626 244.479 159.429 244.577 159.273 244.723C155.289 249.622 141.854 262.342 135.648 263.819C135.492 263.842 135.345 263.906 135.222 264.003C135.099 264.1 135.004 264.227 134.946 264.372C134.888 264.517 134.87 264.675 134.894 264.828C134.919 264.983 134.983 265.128 135.081 265.249C136.444 266.615 138.004 267.774 139.712 268.686C138.137 270.241 136.908 271.64 135.995 272.651C135.522 273.149 135.27 282.665 135.68 284.766C135.74 284.97 135.876 285.148 136.058 285.264C138.042 286.601 163.605 297.517 166.219 296.055C167.967 295.074 188.836 273.631 189.167 272.978C189.671 271.951 189.498 265.109 189.466 262.373C189.34 261.548 187.781 260.662 187.025 260.211ZM136.625 280.754V277.285C143.161 280.395 158.124 286.739 163.794 288.512C165.243 288.979 165.369 288.917 166.125 288.512C170.456 285.775 185.749 268.764 188.553 266.167V269.448C180.048 277.862 165.605 292.603 165.337 291.764C163.778 291.67 137.979 281.376 136.625 280.754ZM186.631 254.971C187.197 255.913 187.501 256.986 187.513 258.081C187.508 258.429 187.421 258.772 187.26 259.083C187.099 259.392 186.867 259.662 186.584 259.869C185.261 258.998 182.757 257.381 179.796 255.484C181.418 252.327 185.025 252.281 186.568 254.971H186.631ZM136.231 264.923C142.941 262.964 155.682 250.835 159.966 245.579C160.997 245.862 161.992 246.264 162.927 246.776C161.352 249.668 163.038 252.84 163.636 252.39C163.967 252.141 163.368 252.047 163.274 250.524C163.233 249.41 163.489 248.306 164.014 247.32C166.188 248.44 168.739 249.902 170.897 251.13C169.574 254.038 171.165 256.915 171.716 256.495C172.267 256.075 171.464 256.168 171.369 254.644C171.331 253.645 171.524 252.65 171.936 251.736C174.157 253.027 176.425 254.364 178.504 255.624C178.184 256.399 178.057 257.239 178.133 258.072C178.21 258.905 178.488 259.709 178.945 260.413C178.966 260.439 178.991 260.463 179.021 260.48C179.05 260.495 179.083 260.507 179.116 260.511C179.15 260.515 179.184 260.513 179.217 260.504C179.25 260.495 179.28 260.481 179.307 260.46C179.334 260.439 179.357 260.415 179.373 260.385C179.39 260.356 179.402 260.324 179.406 260.29C179.41 260.258 179.409 260.224 179.399 260.192C179.39 260.159 179.376 260.128 179.355 260.102C179.071 259.484 178.932 258.812 178.945 258.134C178.958 257.456 179.125 256.79 179.433 256.184C183.103 258.392 186.064 260.242 186.978 260.849C186.804 261.004 170.377 275.435 164.786 279.728C161.116 278.778 141.854 269.339 136.231 264.923ZM136.83 273.584C143.964 276.694 160.171 283.909 163.904 284.611C164.55 284.735 164.802 284.78 166.03 283.816C171.275 279.666 188.332 262.046 188.49 262.233C188.497 262.279 188.497 262.326 188.49 262.373V265.483C184.977 268.266 165.447 288.512 165.132 287.548C163.557 287.548 137.964 277.24 136.656 276.663C136.625 276.01 136.767 274.268 136.83 273.584ZM165.51 295.012C163.935 295.9 139.948 286.273 136.735 284.314C136.614 283.321 136.557 282.326 136.562 281.328C143.46 284.687 163.526 293.053 165.369 292.976C168.062 292.835 187.104 271.672 188.458 270.194C188.474 270.989 188.394 271.782 188.222 272.558C187.954 273.071 166.55 294.438 165.51 295.012ZM35.0211 207.357C35.1313 209.021 35.2101 210.467 35.2101 211.82C35.2101 212.026 35.2931 212.224 35.4406 212.369C35.5884 212.515 35.7885 212.597 35.9976 212.597C36.2064 212.597 36.4068 212.515 36.5543 212.369C36.702 212.224 36.7851 212.026 36.7851 211.82C36.7851 210.373 36.7063 208.943 36.5961 207.248C36.5815 207.042 36.4844 206.85 36.3263 206.714C36.1683 206.578 35.9624 206.511 35.7533 206.525C35.5446 206.539 35.3501 206.635 35.2127 206.79C35.0752 206.947 35.0065 207.151 35.0211 207.357ZM275.004 176.179C274.901 176.186 274.801 176.212 274.707 176.256C274.615 176.301 274.532 176.363 274.466 176.441C274.397 176.517 274.346 176.607 274.314 176.703C274.283 176.8 274.271 176.902 274.28 177.003C274.374 178.434 274.469 179.973 274.469 181.466C274.469 181.672 274.552 181.87 274.701 182.015C274.847 182.162 275.047 182.243 275.256 182.243C275.465 182.243 275.666 182.162 275.812 182.015C275.961 181.87 276.044 181.672 276.044 181.466C276.044 179.911 275.949 178.356 275.838 176.894C275.832 176.793 275.806 176.694 275.76 176.603C275.715 176.511 275.652 176.429 275.574 176.363C275.497 176.296 275.405 176.245 275.308 176.214C275.211 176.183 275.108 176.17 275.004 176.179ZM30.9418 203.485C31.1506 203.485 31.3511 203.403 31.4985 203.257C31.6463 203.112 31.7293 202.913 31.7293 202.707C31.7293 202.501 31.6463 202.303 31.4985 202.158C31.3511 202.012 31.1506 201.93 30.9418 201.93C29.0361 201.93 27.4453 202.07 25.8703 202.039C25.6599 202.039 25.458 202.12 25.3079 202.265C25.1576 202.411 25.0711 202.609 25.0671 202.816C25.0671 203.022 25.1501 203.22 25.2976 203.365C25.4454 203.512 25.6455 203.594 25.8546 203.594C27.4768 203.625 29.2566 203.563 30.9418 203.485ZM270.122 171.576C268.232 171.576 266.641 171.685 265.05 171.701C264.842 171.701 264.641 171.782 264.494 171.929C264.346 172.074 264.263 172.272 264.263 172.478C264.263 172.684 264.346 172.882 264.494 173.027C264.641 173.174 264.842 173.256 265.05 173.256C266.751 173.256 268.515 173.256 270.216 173.131C270.425 173.118 270.621 173.025 270.76 172.871C270.898 172.716 270.968 172.513 270.957 172.307C270.944 172.101 270.849 171.908 270.693 171.771C270.535 171.633 270.331 171.563 270.122 171.576ZM34.5958 193.875C34.6903 195.306 34.7848 196.845 34.7848 198.338C34.7888 198.542 34.873 198.738 35.0199 198.883C35.1666 199.028 35.3647 199.111 35.5723 199.115C35.7811 199.115 35.9816 199.034 36.129 198.887C36.2768 198.742 36.3598 198.544 36.3598 198.338C36.3598 196.783 36.2653 195.228 36.1708 193.766C36.1562 193.56 36.0592 193.368 35.9011 193.232C35.743 193.096 35.5371 193.029 35.3281 193.043C35.1193 193.057 34.9249 193.153 34.7874 193.309C34.65 193.466 34.5812 193.669 34.5958 193.875ZM275.617 167.984C275.617 166.429 275.523 164.874 275.414 163.412C275.4 163.206 275.302 163.015 275.145 162.879C274.987 162.743 274.781 162.675 274.572 162.69C274.363 162.704 274.168 162.8 274.031 162.955C273.893 163.112 273.825 163.315 273.839 163.521C273.933 164.952 274.028 166.491 274.028 167.984C274.028 168.19 274.111 168.388 274.26 168.533C274.406 168.68 274.606 168.762 274.815 168.762C275.025 168.762 275.228 168.68 275.377 168.535C275.528 168.39 275.614 168.191 275.617 167.984ZM46.2193 203.283C46.3227 203.279 46.4244 203.254 46.5183 203.211C46.6122 203.169 46.697 203.108 46.7672 203.033C46.8373 202.958 46.892 202.871 46.9275 202.773C46.9633 202.678 46.9796 202.576 46.9753 202.474C46.9593 202.271 46.8662 202.08 46.7142 201.941C46.5624 201.804 46.3631 201.728 46.1563 201.728C44.2506 201.805 42.6598 201.868 41.0691 201.836C40.86 201.836 40.6599 201.918 40.5121 202.065C40.3646 202.21 40.2816 202.408 40.2816 202.614C40.2816 202.82 40.3646 203.018 40.5121 203.163C40.6599 203.31 40.86 203.391 41.0691 203.391C42.7543 203.423 44.5183 203.36 46.2193 203.283ZM285.399 171.374C283.824 171.452 282.075 171.498 280.328 171.498C280.225 171.495 280.122 171.511 280.022 171.548C279.924 171.584 279.838 171.64 279.761 171.71C279.686 171.781 279.626 171.867 279.586 171.961C279.546 172.056 279.523 172.158 279.523 172.26C279.523 172.468 279.606 172.667 279.755 172.816C279.901 172.964 280.102 173.049 280.311 173.053C282.106 173.053 283.555 173.053 285.462 172.929C285.566 172.925 285.666 172.9 285.76 172.858C285.855 172.815 285.941 172.754 286.009 172.679C286.081 172.604 286.135 172.517 286.17 172.42C286.207 172.324 286.221 172.223 286.218 172.12C286.198 171.918 286.104 171.731 285.952 171.593C285.803 171.454 285.606 171.377 285.399 171.374ZM10.0257 157.208C10.2305 157.364 54.6456 150.864 56.5513 149.713C56.657 149.637 56.7412 149.535 56.7962 149.419C56.8512 149.302 56.8755 149.173 56.8663 149.044C56.8663 147.038 54.2046 128.207 52.9288 123.511C52.7713 122.936 52.6138 122.36 52.2516 122.158C49.8418 120.728 7.37975 128.627 4.844 130.244C4.77533 130.284 4.71588 130.339 4.66981 130.402C4.62362 130.467 4.59186 130.54 4.57622 130.618C4.04072 132.499 8.65547 156.275 10.0257 157.208ZM5.537 130.991C8.561 129.638 47.1013 122.671 51.5113 123.216C52.5823 125.937 55.4488 145.872 55.6378 148.795C53.4486 149.433 10.6243 156.695 10.4668 156.726C10.3093 156.757 10.2935 156.944 9.96275 155.964C8.57675 151.859 5.45825 134.505 5.537 130.991Z" fill="#2E3032"/>
<path d="M60.0164 151.097C60.1021 150.94 60.1404 150.761 60.1267 150.584C60.1267 148.111 56.5357 120.666 55.2599 118.473C55.16 118.311 55.0185 118.179 54.8496 118.088C54.6809 117.998 54.4911 117.954 54.2992 117.96C49.0229 117.322 4.51344 125.906 1.58394 127.912C1.17444 128.192 1.23744 128.891 1.28469 129.638C1.53669 133.728 6.00969 160.629 7.58469 160.474C7.75794 160.474 7.69494 160.349 7.28544 161.173C4.82844 166.165 0.166436 182.15 0.260936 185.369C0.260936 186.722 0.575937 188.479 1.93044 188.386C11.6482 187.204 59.2919 179.74 72.9944 176.957C73.5299 176.848 73.8764 176.366 73.8607 175.573C73.6989 174.251 73.2934 172.97 72.6637 171.794C70.7422 168.233 62.7727 154.129 60.0164 151.097ZM7.67919 159.991C6.45069 158.436 1.93044 131.644 2.27694 128.674C5.74194 126.901 49.6529 118.52 54.2519 119.204C55.5119 122.625 58.7722 147.334 58.9769 150.304C53.4014 152.201 14.7982 158.359 7.67919 159.991ZM8.37219 160.458C9.69519 160.131 54.7559 152.683 58.8824 151.61C61.1347 153.678 71.3092 171.545 71.9707 173.069C62.9302 174.624 9.30144 183.472 1.41069 184.654C1.52094 179.942 6.41919 163.475 8.37219 160.458Z" fill="#2E3032"/>
<path d="M14.2951 176.583C15.6654 176.381 44.7399 172.929 55.2451 170.114C55.3098 170.098 55.3654 170.056 55.3995 170.001C55.4333 169.943 55.443 169.875 55.4264 169.811C55.4095 169.748 55.368 169.692 55.3101 169.66C55.2526 169.626 55.1838 169.616 55.1191 169.632C53.0559 170.052 27.8874 173.364 14.2636 176.101C14.226 176.095 14.1873 176.096 14.1505 176.106C14.1138 176.117 14.0798 176.135 14.0513 176.161C14.0227 176.185 14.0004 176.217 13.9858 176.252C13.9713 176.287 13.965 176.324 13.9675 176.362C13.9701 176.399 13.9811 176.437 14.0001 176.469C14.019 176.502 14.0453 176.53 14.0768 176.551C14.1084 176.573 14.1445 176.587 14.1823 176.592C14.2201 176.598 14.2587 176.595 14.2951 176.583ZM35.5419 68.3864C34.9534 69.6982 34.4589 71.0494 34.0614 72.4294C34.0379 72.6508 34.0998 72.873 34.2346 73.0514C35.8254 75.415 52.1266 93.5619 56.3791 96.1121C56.9619 96.4697 57.6549 96.7185 58.0801 96.2054C61.1691 92.4103 65.2009 89.4694 69.7824 87.6684C73.5114 86.3659 77.4211 85.6367 81.3744 85.507C84.5244 85.2271 85.0756 84.916 86.2884 82.879C87.7191 80.1982 89.6171 77.7874 91.8954 75.7571C94.8005 73.2493 98.025 71.1269 101.487 69.4438C101.643 69.3567 101.765 69.2204 101.833 69.057C101.902 68.8936 101.913 68.7124 101.865 68.5419C101.333 67.2043 100.629 65.9397 99.7704 64.7788C100.337 64.5922 100.967 64.4211 100.967 63.8613C100.967 62.3063 87.2334 42.6823 83.4219 38.9813C83.0281 38.5926 82.4611 38.0794 81.9414 38.1105C74.0664 38.5459 66.3961 45.8855 61.9546 52.2921C56.8674 52.1055 53.5756 51.6546 47.7796 54.0648C43.6878 55.7796 39.9988 58.3103 36.9436 61.4977C36.4711 61.9798 33.2581 65.3386 33.2109 65.603C33.1636 65.8673 33.2581 65.8673 35.5419 68.3864ZM98.5419 67.951C91.9741 69.055 87.7846 74.4509 84.6976 80.3132C83.3274 82.9256 83.4534 83.05 82.0044 83.019C79.4706 82.8773 76.9289 82.9712 74.4129 83.2988C72.5673 83.5711 70.7529 84.0192 68.9949 84.6361C64.9944 86.0356 60.4111 90.514 57.9699 93.8417C57.918 93.9102 57.8519 93.967 57.7763 94.0086C57.7007 94.0501 57.6171 94.0753 57.5306 94.0826C57.4444 94.09 57.3576 94.0792 57.2757 94.0512C57.1941 94.023 57.1194 93.9783 57.0564 93.9195C51.9376 88.7102 42.8814 79.5668 38.3296 74.311C38.1091 74.0777 38.4871 73.7356 38.7076 73.9844C41.6529 77.0944 49.2601 84.5428 57.4186 92.6444C60.1749 89.1767 64.4274 84.9782 68.6326 83.5165C70.9258 82.7091 73.3121 82.1866 75.7359 81.9615C78.0059 81.7913 80.2856 81.7913 82.5556 81.9615C83.4849 80.9041 88.0839 68.8995 98.5104 67.5622C98.5407 67.5843 98.5659 67.6129 98.5837 67.6459C98.6017 67.679 98.6115 67.7155 98.6129 67.7528C98.6146 67.7901 98.6075 67.8274 98.5926 67.8617C98.5774 67.8961 98.5548 67.9264 98.5261 67.951H98.5419ZM81.9256 39.3701C85.0756 41.5471 97.8961 60.2848 99.5656 63.5659C96.6688 64.472 93.8721 65.6651 91.2181 67.1268C88.705 68.3708 86.5046 70.1523 84.7772 72.342C83.0496 74.5318 81.8389 77.0743 81.2326 79.7845C75.5784 70.7033 67.6876 60.7047 62.4429 53.3496C62.7579 53.1474 71.6094 39.9765 81.9256 39.3701ZM48.1261 54.9201C53.8749 52.6342 57.0564 53.1629 61.8129 53.3651C66.5379 61.3267 75.0271 72.5538 80.6184 79.909C75.4578 78.7034 70.0275 79.4408 65.3881 81.9771C62.6004 83.5321 59.1984 87.2641 57.1036 89.581C54.0796 87.1863 36.6286 68.8373 33.8251 65.7273C38.1406 60.9068 42.1254 57.2837 48.1261 54.8579V54.9201ZM19.3036 94.4638C18.9145 94.194 18.4543 94.0416 17.9789 94.0252C17.5036 94.0086 17.0336 94.1284 16.6261 94.3704C16.3295 94.5011 16.0614 94.6882 15.8381 94.9212C15.6143 95.1542 15.4395 95.4281 15.3232 95.7278C15.2069 96.0272 15.1516 96.3467 15.1604 96.6673C15.169 96.9882 15.2416 97.304 15.374 97.5972C15.5063 97.8901 15.696 98.1545 15.9317 98.3753C16.1677 98.5958 16.4452 98.7685 16.7487 98.8833C17.0522 98.9984 17.3755 99.053 17.7006 99.0442C18.0253 99.0357 18.3455 98.9639 18.6421 98.8333C19.1164 98.7309 19.5479 98.4887 19.8792 98.1386C20.2108 97.7886 20.4268 97.3476 20.4983 96.8737C20.5702 96.3999 20.4943 95.9156 20.281 95.4852C20.0676 95.0546 19.7269 94.6987 19.3036 94.4638ZM18.2641 97.5737C17.1616 97.9158 16.5001 97.5737 16.2324 97.045C15.7284 95.941 16.3584 94.246 17.9964 94.7436C19.1461 95.1635 20.0754 97.0761 18.2641 97.6515V97.5737ZM99.3924 23.3069C99.8491 24.2244 101.975 23.8823 102.905 23.5868C103.393 23.4313 103.708 23.2603 103.755 22.7938C103.897 21.6276 104.054 11.5201 103.519 10.5404C103.464 10.4377 103.379 10.3534 103.275 10.2981C103.171 10.2428 103.054 10.2188 102.936 10.2294C101.256 10.2248 99.5837 10.4659 97.9749 10.9447C97.3291 11.3335 98.8254 22.2806 99.3924 23.3069ZM98.3056 11.3179C99.7606 11.1124 101.232 11.0448 102.7 11.1158C102.794 12.2665 102.542 22.234 102.527 22.3895C101.861 22.625 101.151 22.7101 100.448 22.6383C100.337 22.2807 100.148 21.3165 99.9121 20.1037C99.218 17.2056 98.6819 14.2727 98.3056 11.3179ZM17.7759 81.3395C17.9271 81.4162 18.0943 81.4557 18.2641 81.4557C18.4339 81.4557 18.6012 81.4162 18.7524 81.3395C19.3609 80.9689 19.8434 80.4275 20.1384 79.7845C20.1785 79.6816 20.1908 79.5702 20.1742 79.4614C20.1576 79.3523 20.1129 79.2493 20.0439 79.1625C19.2879 78.2762 11.0349 68.8373 10.0269 69.4282C8.78922 70.2193 7.61504 71.1031 6.51463 72.0718C6.47028 72.111 6.43471 72.1588 6.41031 72.2123C6.38588 72.266 6.37317 72.3239 6.37288 72.3827C6.34138 73.1913 15.5079 80.4377 17.7759 81.3395ZM10.2159 69.8326C11.3656 70.6567 15.2401 75.3839 18.8311 79.5668C18.6768 79.8069 18.4855 80.022 18.2641 80.2044C14.4886 77.8187 10.8838 75.1792 7.47538 72.305C8.32984 71.4192 9.24557 70.5931 10.2159 69.8326ZM34.9591 35.5292C35.3056 29.4958 38.8651 26.6968 42.5821 25.9815C41.5269 29.8068 41.7001 34.7828 45.5274 35.4204C47.3544 35.7158 48.2521 34.7829 49.5751 33.6943C55.2294 29.0294 50.6619 24.3643 44.2831 24.6909C46.6614 18.2532 52.1581 13.0129 59.4504 12.8418C59.5171 12.8418 59.5813 12.8156 59.6285 12.769C59.6758 12.7222 59.7024 12.659 59.7024 12.593C59.7024 12.5271 59.6758 12.4637 59.6285 12.4171C59.5813 12.3704 59.5171 12.3442 59.4504 12.3442C51.5754 12.1887 45.3856 17.7867 42.9444 24.7842C38.7391 25.4995 34.5654 28.6095 34.4551 35.4359C34.4488 35.4687 34.4491 35.5021 34.4563 35.5346C34.4632 35.5671 34.4766 35.598 34.4955 35.6257C34.5147 35.6531 34.5388 35.6765 34.5671 35.6946C34.5952 35.7127 34.627 35.7255 34.6599 35.7314C34.6931 35.7376 34.7269 35.7371 34.7598 35.7303C34.7928 35.7235 34.824 35.7102 34.852 35.6915C34.8798 35.6726 34.9036 35.6488 34.9219 35.6209C34.9402 35.5931 34.9528 35.562 34.9591 35.5292ZM43.9209 25.7949C46.2676 25.6394 49.7641 26.3547 50.7249 28.454C51.2761 29.6514 50.7249 31.1286 48.7719 32.7458C48.2415 33.2703 47.6367 33.7156 46.9764 34.0675C44.6139 35.0627 41.9994 32.186 43.9209 25.7949ZM48.4254 245.719C46.9036 245.316 45.316 245.218 43.7554 245.431C42.1947 245.643 40.693 246.162 39.3385 246.956C37.984 247.749 36.8039 248.803 35.8681 250.054C34.9319 251.305 34.2587 252.728 33.8881 254.24C33.1885 257.381 33.781 260.667 35.5356 263.376C37.2901 266.085 40.0627 267.995 43.2436 268.686C46.4246 269.377 49.7533 268.792 52.4969 267.06C55.2411 265.327 57.1758 262.59 57.8754 259.449C58.1743 257.934 58.1666 256.377 57.8525 254.865C57.5386 253.353 56.9247 251.918 56.0464 250.641C55.1678 249.365 54.0421 248.273 52.7343 247.428C51.4262 246.583 49.9617 246.002 48.4254 245.719ZM53.2921 258.392C52.6601 260.88 51.1473 263.063 49.027 264.546C46.9068 266.029 44.3189 266.715 41.7316 266.478C39.3565 265.562 37.3846 263.847 36.1633 261.638C34.942 259.427 34.5488 256.863 35.0536 254.396C35.643 251.847 37.1418 249.592 39.2761 248.045C41.4103 246.498 44.0374 245.76 46.6771 245.967C49.0757 246.946 51.0479 248.728 52.2463 251.001C53.4448 253.273 53.793 255.891 53.2291 258.392H53.2921Z" fill="#2E3032"/>
<path d="M69.4041 250.15C68.0329 249.684 66.5633 249.571 65.1358 249.824C64.5439 248.484 63.816 247.207 62.9623 246.014C63.9861 245.097 66.7896 242.546 66.1123 241.349C63.702 238.502 60.8404 236.061 57.6385 234.118C56.3018 233.378 54.8299 232.908 53.3076 232.734C52.2996 232.874 49.9053 236.746 49.3698 237.617C49.0233 237.617 47.7951 237.228 47.7006 237.182C47.7006 236.062 47.3698 232.019 46.3461 231.553C45.2012 231.137 44.0125 230.849 42.8023 230.697C41.6841 230.526 31.6198 232.346 30.8796 233.683C30.3913 234.585 31.5253 237.99 31.8561 238.939C31.0067 239.4 30.1908 239.92 29.4148 240.494C27.8398 241.598 28.2651 241.551 27.9816 241.427C27.6388 241.265 27.2717 241.16 26.8948 241.116C25.6365 240.387 24.1615 240.113 22.7211 240.338C21.2721 240.805 17.8543 248.486 17.3031 250.461C17.1226 250.959 17.074 251.494 17.1613 252.016C17.5393 253.043 20.0593 253.867 21.1146 254.193C20.823 256.194 20.823 258.226 21.1146 260.227C19.7286 260.6 16.846 261.44 17.0035 262.839C17.161 264.239 20.8465 273.475 22.3743 274.206C23.2113 274.669 24.1368 274.953 25.0916 275.041C26.0463 275.129 27.0091 275.02 27.9186 274.719C28.4306 274.467 28.9254 274.182 29.3991 273.864C30.0291 274.331 30.6906 274.75 31.3678 275.155C30.8796 276.352 29.7928 279.027 30.1393 280.24C30.3126 280.879 30.8323 281.079 31.5568 281.345C33.5571 282.06 44.3301 284.611 45.9681 284.331C46.5823 284.237 46.9131 283.598 47.1021 282.993C47.452 281.611 47.6579 280.2 47.716 278.778C48.525 278.699 49.3294 278.58 50.1261 278.422C50.6126 279.264 51.2349 280.028 51.9688 280.675C52.7721 281.235 53.4493 280.955 54.3628 280.381C54.8038 280.941 55.4653 281.718 56.1741 281.795C57.9538 281.998 65.3091 275.155 66.0651 273.755C66.6951 272.589 64.3956 270.505 63.3718 269.588C64.4792 267.942 65.3486 266.153 65.9548 264.27C67.0908 264.438 68.2406 264.502 69.3883 264.456C69.9081 264.456 70.5066 264.27 70.7271 263.788C71.6878 261.626 71.4043 253.431 70.7271 251.348C70.6326 250.741 69.9238 250.337 69.4041 250.15ZM69.7821 251.581C70.3176 253.602 70.4905 261.237 69.703 263.212C68.3414 263.345 66.9674 263.282 65.6238 263.026C65.4806 263.001 65.3331 263.031 65.2108 263.109C65.0883 263.186 64.9998 263.307 64.9626 263.446C64.3354 265.547 63.3615 267.534 62.08 269.323C61.989 269.443 61.9477 269.59 61.9655 269.739C61.9829 269.887 62.0583 270.022 62.1748 270.117C63.2799 270.981 64.2186 272.034 64.9468 273.227C64.1593 274.502 58.0011 280.07 56.3001 280.536C56.0481 280.536 55.3551 279.603 55.1818 279.355C54.5999 278.49 54.0742 277.593 53.6068 276.663C53.5387 276.527 53.4215 276.423 53.2789 276.369C53.136 276.313 52.9777 276.313 52.8348 276.369C48.2673 278.063 46.5351 277.067 46.5351 278.187C46.5371 279.864 46.2604 281.529 45.7158 283.118C42.0145 282.719 38.37 281.916 34.8486 280.723C35.0187 279.061 35.4877 277.443 36.2346 275.948C36.7071 274.906 34.8171 275.201 31.2891 271.656C31.1754 271.552 31.0265 271.494 30.8718 271.494C30.7169 271.494 30.568 271.552 30.4543 271.656C28.8793 272.931 26.8318 274.175 26.4223 273.973C25.6191 273.584 21.9178 265.296 21.6973 263.617C22.8176 262.846 24.0893 262.316 25.4301 262.062C25.5729 262.021 25.6964 261.932 25.7777 261.809C25.8585 261.686 25.892 261.538 25.8711 261.393C25.485 259.191 25.485 256.939 25.8711 254.738C25.8951 254.602 25.8662 254.463 25.7903 254.348C25.7141 254.232 25.5967 254.149 25.4616 254.116C24.274 253.809 23.1311 253.354 22.0596 252.763C21.7131 252.514 21.7446 252.529 21.7761 252.265C22.7955 248.635 24.4304 245.201 26.6113 242.111C27.4618 241.878 29.7613 243.542 30.5488 244.132C30.631 244.212 30.7412 244.255 30.8558 244.255C30.9706 244.255 31.0809 244.212 31.1631 244.132C31.8867 243.391 32.6659 242.706 33.4941 242.08C35.8881 240.292 36.5338 240.525 36.3291 239.903C35.6048 238.343 35.1982 236.657 35.1321 234.942C35.376 234.742 35.6532 234.585 35.9511 234.476C37.4215 233.902 38.9321 233.434 40.4713 233.076C42.337 232.563 44.2545 232.255 46.1886 232.159C46.5193 232.299 46.8186 233.714 46.8973 234.149C47.4801 237.259 47.0863 237.897 47.5431 237.944C52.0318 238.379 52.9453 239.607 53.2603 239.063C54.1337 237.555 55.1517 236.133 56.3001 234.818C56.6308 234.491 56.6151 234.336 57.6073 234.896C60.5717 236.808 63.2266 239.151 65.4823 241.847C65.7186 242.251 63.6711 244.397 62.1748 245.656C61.6551 246.107 62.3953 246.31 63.7498 248.86C65.1043 251.41 64.789 252.125 65.5135 251.97C66.9104 251.639 68.3477 251.508 69.7821 251.581ZM288.375 121.645C285.073 120.314 281.614 119.409 278.077 118.955C275.494 118.551 272.453 118.146 269.886 117.82C272.359 114.368 279.681 105.629 280.909 103.498C281.256 102.923 280.597 102.114 280.108 101.632C277.367 98.74 272.075 97.6515 268.012 97.0295C265.681 96.6563 255.947 95.4745 254.293 96.252C252.309 97.185 237.63 118.955 237.189 122.267C237.189 122.827 237.378 123.045 237.929 123.247C240.244 124.087 250.687 125.393 253.018 125.937C249.868 131.379 235.866 149.775 234.496 152.372C234.165 153.025 234.37 153.414 234.763 153.538C236.181 154.094 237.639 154.541 239.126 154.875C239.693 155.047 240.937 154.285 242.749 153.196C250.876 148.376 285.746 125.641 288.424 122.703C288.498 122.634 288.555 122.55 288.595 122.457C288.633 122.364 288.65 122.263 288.644 122.163C288.641 122.063 288.613 121.965 288.567 121.875C288.521 121.786 288.455 121.708 288.375 121.645ZM254.53 140.305C241.142 149.029 236.622 151.579 236.464 151.688C238.622 148.438 252.025 130.306 254.325 125.968C254.364 125.884 254.385 125.793 254.385 125.7C254.385 125.608 254.363 125.516 254.322 125.433C254.282 125.349 254.223 125.276 254.149 125.218C254.077 125.159 253.992 125.118 253.9 125.097C252.325 124.537 240.859 123.325 238.15 122.376C238.496 119.484 252.797 97.6204 254.53 96.7496C256.262 95.8788 273.067 97.8536 276.219 100.077C274.564 103.265 265.429 114.43 263.948 117.027C263.649 117.555 263.554 118.069 264.137 118.209C264.72 118.349 279.523 120.059 282.754 121.101C278.816 124.351 258.94 137.382 254.53 140.243V140.305ZM153.493 45.2325C153.493 45.3724 153.588 45.5434 153.824 46.4453C153.886 46.641 154.022 46.8053 154.205 46.9039C154.386 47.0023 154.6 47.0275 154.801 46.974C155.001 46.9164 155.171 46.7824 155.27 46.6014C155.372 46.4208 155.395 46.2079 155.336 46.01C155.179 45.4035 155.037 44.8903 154.942 44.6415C154.85 44.4708 154.698 44.3399 154.513 44.2746C154.329 44.209 154.127 44.2135 153.946 44.2873C153.765 44.3611 153.618 44.4988 153.535 44.6735C153.451 44.8482 153.435 45.0475 153.493 45.2325Z" fill="#2E3032"/>
</svg>
