<svg xmlns="http://www.w3.org/2000/svg" width="1000" height="1000" viewBox="0 0 1000 1000" version="1.1"><path d="M 411.391 93.176 C 411.081 93.677, 411.253 94.630, 411.772 95.294 C 412.292 95.957, 423.110 116.997, 435.813 142.049 L 458.909 187.598 407.204 239.243 C 356.859 289.529, 355.303 290.976, 348 294.282 C 335.206 300.073, 325 305.225, 325 305.892 C 325 307.243, 350.247 331.444, 350.627 330.457 C 350.848 329.883, 353.947 323.433, 357.514 316.123 C 361.081 308.813, 364 302.470, 364 302.028 C 364 301.586, 387.563 277.644, 416.361 248.824 C 453.759 211.398, 469.120 196.645, 470.111 197.200 C 470.875 197.627, 475.246 200.232, 479.823 202.989 C 484.401 205.745, 488.306 208, 488.500 208 C 488.694 208, 492.519 210.250, 497 213 C 501.481 215.750, 505.293 218, 505.471 218 C 505.650 218, 508.827 219.841, 512.531 222.092 C 518.974 226.006, 521.340 227.382, 529.750 232.107 C 531.813 233.265, 533.950 234.567, 534.500 235 C 535.050 235.433, 537.188 236.735, 539.250 237.893 C 545.736 241.537, 549.331 243.619, 555 247.017 C 558.025 248.829, 561.625 250.940, 563 251.706 C 565.464 253.080, 565.449 253.093, 562 252.603 C 560.075 252.331, 556.250 251.825, 553.500 251.480 C 550.750 251.136, 547.375 250.676, 546 250.458 C 544.625 250.241, 541.250 249.806, 538.500 249.491 C 535.750 249.176, 532.825 248.730, 532 248.500 C 531.175 248.270, 528.475 247.849, 526 247.565 C 519.011 246.764, 512.741 245.965, 510 245.528 C 504.637 244.673, 496.371 243.688, 493.778 243.597 C 491.483 243.515, 485.400 249.145, 455.111 279.385 C 435.341 299.121, 419.362 315.781, 419.602 316.406 C 419.842 317.031, 420.906 317.983, 421.966 318.521 C 431.780 323.505, 452.166 342.499, 462.190 356 C 481.103 381.472, 494.327 410.539, 501.400 442.188 C 504.381 455.526, 506.990 471.176, 506.996 475.750 C 506.998 477.538, 507.337 479.046, 507.750 479.103 C 508.163 479.159, 511.200 479.340, 514.500 479.504 C 522.008 479.877, 531.716 480.803, 535 481.459 C 536.375 481.734, 538.625 482.179, 540 482.447 C 541.375 482.716, 544.075 483.328, 546 483.806 C 547.925 484.285, 549.725 484.702, 550 484.732 C 550.275 484.763, 552.525 485.367, 555 486.075 C 557.475 486.782, 559.725 487.414, 560 487.480 C 561.594 487.858, 565.782 489.243, 567.500 489.961 C 568.600 490.420, 574 492.611, 579.500 494.829 C 590.108 499.109, 609.340 508.681, 614.011 512.008 C 615.550 513.104, 617.147 514, 617.560 514 C 617.973 514, 619.786 515.125, 621.589 516.500 C 623.392 517.875, 625.117 519, 625.424 519 C 626.037 519, 636.388 525.998, 643.782 531.412 C 651.344 536.949, 662.446 545.945, 671.220 553.647 L 679.362 560.794 684.831 553.147 C 687.838 548.941, 692.197 543.025, 694.517 540 C 703.707 528.015, 722.134 502.815, 722.606 501.585 C 723.179 500.091, 721.801 498.341, 706.008 480.500 C 699.679 473.350, 692.936 465.507, 691.025 463.072 L 687.550 458.644 694.525 462.502 C 698.361 464.624, 704.200 467.804, 707.500 469.569 C 720.316 476.423, 723.544 478.229, 724.750 479.219 C 725.438 479.783, 726 479.934, 726 479.554 C 726 479.175, 727.237 479.723, 728.750 480.774 C 730.263 481.824, 732.850 483.360, 734.500 484.187 C 737.272 485.577, 743.182 488.737, 760 497.823 C 763.575 499.754, 769.650 502.995, 773.500 505.025 C 777.350 507.055, 782.750 509.957, 785.500 511.475 C 788.250 512.992, 793.650 515.906, 797.500 517.949 C 801.350 519.993, 807.650 523.368, 811.500 525.450 C 820.282 530.198, 830.874 535.871, 840.250 540.849 C 844.237 542.966, 850.200 546.172, 853.500 547.974 C 856.800 549.775, 863.100 553.171, 867.500 555.520 C 871.900 557.870, 877.638 560.964, 880.250 562.396 C 891.769 568.711, 894.348 569.985, 894.765 569.568 C 895.196 569.137, 880.964 540.442, 861.005 501.500 C 855.650 491.050, 842.376 464.950, 831.509 443.500 C 806.479 394.095, 782.899 347.690, 768.500 319.500 C 762.319 307.400, 751.544 286.156, 744.555 272.291 L 731.847 247.081 720.174 241.342 C 713.753 238.185, 708.275 235.563, 708 235.514 C 707.725 235.466, 702.100 232.755, 695.500 229.491 C 688.900 226.226, 683.275 223.519, 683 223.476 C 682.725 223.433, 674.625 219.543, 665 214.833 C 633.430 199.381, 623.507 194.575, 623 194.493 C 622.725 194.448, 615.300 190.848, 606.500 186.493 C 597.700 182.138, 590.275 178.536, 590 178.489 C 589.725 178.443, 582.750 175.109, 574.500 171.081 C 566.250 167.053, 552.975 160.571, 545 156.677 C 537.025 152.782, 530.275 149.561, 530 149.518 C 529.725 149.475, 522.300 145.876, 513.500 141.521 C 504.700 137.166, 497.275 133.564, 497 133.517 C 496.725 133.470, 491.550 131.024, 485.500 128.082 C 479.450 125.141, 466.175 118.708, 456 113.788 C 445.825 108.868, 431.752 102.012, 424.727 98.553 C 417.702 95.095, 411.701 92.675, 411.391 93.176 M 420 349.281 C 420 351.523, 417.829 360.305, 413.025 377.500 C 407.600 396.913, 395.096 431.450, 385.328 454 C 375.149 477.497, 356.568 512.838, 345.106 530.500 C 340.262 537.963, 324.303 560.720, 322.550 562.664 C 321.972 563.304, 320.375 565.313, 319 567.130 C 315.522 571.724, 304.576 584.336, 298 591.328 C 294.975 594.543, 292.500 597.601, 292.500 598.122 C 292.500 598.643, 302.400 608.951, 314.500 621.028 L 336.500 642.985 412.135 567.360 C 487.387 492.118, 487.772 491.712, 488.313 487.118 C 489.051 480.850, 487.364 463.634, 485.036 453.669 C 477.575 421.732, 458.566 388.128, 431.434 358.912 C 426.115 353.186, 421.367 348.072, 420.882 347.550 C 420.356 346.983, 420 347.682, 420 349.281 M 500.282 498.806 C 496.138 499.106, 494.730 500.446, 420.532 574.656 C 378.989 616.206, 345 650.517, 345 650.904 C 345 652.240, 388.065 694.500, 389.426 694.500 C 390.177 694.500, 393.904 691.575, 397.708 688 C 406.806 679.450, 411.331 675.537, 419.084 669.519 C 422.613 666.780, 425.950 664.185, 426.500 663.754 C 433.440 658.314, 466.237 636, 467.293 636 C 467.569 636, 470.752 634.204, 474.365 632.009 C 483.352 626.549, 512.988 611, 514.408 611 C 514.693 611, 520.006 608.599, 526.214 605.665 C 546.323 596.159, 582.194 582.699, 604 576.477 C 608.675 575.143, 614.750 573.402, 617.500 572.609 C 620.250 571.815, 624.300 570.714, 626.500 570.162 C 628.700 569.610, 632.422 568.652, 634.771 568.033 C 637.119 567.414, 639.594 567.217, 640.271 567.595 C 641.954 568.536, 640.163 566.767, 628 555.475 C 618.546 546.698, 600.853 532.537, 597 530.662 C 596.175 530.261, 592.800 528.153, 589.500 525.979 C 584.235 522.509, 560.882 510.346, 560.270 510.755 C 560.144 510.839, 557.669 509.873, 554.770 508.608 C 549.237 506.192, 532.968 501.470, 527 500.547 C 518.083 499.168, 506.079 498.385, 500.282 498.806" stroke="none" fill="#545454" fill-rule="evenodd"/><path d="M 271.500 618.808 C 267.100 623.437, 259 630.918, 253.500 635.433 C 243.420 643.708, 226.561 656, 225.292 656 C 224.916 656, 222.985 657.124, 221.002 658.499 C 214.052 663.315, 183.253 675.066, 179.815 674.213 C 179.438 674.120, 178.482 676.396, 177.691 679.272 C 176.900 682.147, 175.015 689, 173.503 694.500 C 170.969 703.715, 164.814 722.378, 158.661 739.500 C 155.230 749.049, 139.347 787.122, 133.422 800 C 122.768 823.157, 97.857 871.051, 87.708 887.889 C 86.584 889.753, 86.135 891.103, 86.709 890.889 C 88.615 890.179, 222 757.652, 222 756.469 C 222 755.830, 221.223 753.776, 220.273 751.904 C 216.496 744.459, 218.835 732.192, 225.153 726.317 C 231.633 720.292, 243.226 718.694, 250.684 722.798 C 251.886 723.459, 253.463 724, 254.190 724 C 254.916 724, 271.032 708.474, 290.001 689.499 L 324.492 654.997 301.996 632.694 L 279.500 610.391 271.500 618.808 M 308 687.085 C 295.075 700.236, 279.619 715.880, 273.654 721.850 L 262.808 732.703 264.987 736.975 C 270.724 748.220, 265.145 762.497, 253 767.648 C 249.166 769.274, 239.032 768.647, 234.596 766.508 L 230.693 764.626 187.721 808.063 C 164.086 831.953, 133.913 862.395, 120.670 875.712 C 98.021 898.486, 92.931 904.682, 101.732 898.763 C 105.278 896.378, 131.756 881.735, 140.500 877.323 C 142.700 876.213, 149 873.020, 154.500 870.228 C 172.990 860.842, 191.397 852.248, 207 845.718 C 235.767 833.678, 254.471 826.227, 260 824.606 C 263.025 823.719, 267.750 822.163, 270.500 821.149 C 273.250 820.134, 278.875 818.305, 283 817.084 C 287.125 815.863, 292.525 814.254, 295 813.507 C 297.475 812.761, 301.975 811.610, 305 810.949 C 308.025 810.289, 311.063 809.594, 311.750 809.405 C 312.438 809.217, 313.003 808.036, 313.006 806.781 C 313.016 802.595, 318.857 786.135, 324.015 775.757 C 333.804 756.059, 346.268 738.973, 364.479 720.285 L 376.939 707.500 354.728 685.250 C 342.512 673.013, 332.288 663.039, 332.008 663.087 C 331.729 663.135, 320.925 673.934, 308 687.085" stroke="none" fill="#949494" fill-rule="evenodd"/></svg>