<svg width="559" height="476" viewBox="0 0 559 476" fill="none" xmlns="http://www.w3.org/2000/svg">
<path opacity="0.1" d="M555.536 328.048C540.293 251.182 450.989 189.748 433.571 109.648C401.914 7.73898 297.57 -8.37302 229.765 35.886C122.328 106.015 236.941 123.418 26.2919 289.339C-25.7221 330.308 -9.14807 511.156 154.485 469.652C242.545 447.316 269.315 444.182 308.925 440.504C408.763 431.235 581.123 457.078 555.536 328.048Z" fill="#367CFF"/>
<path d="M436.267 347.313L281.957 428.812L127.88 347.313V224.243H436.267V347.313Z" fill="white"/>
<path d="M281.957 430.062C281.753 430.062 281.552 430.012 281.372 429.916L127.3 348.417C127.1 348.311 126.932 348.153 126.814 347.959C126.697 347.765 126.635 347.543 126.634 347.317V224.243C126.634 223.911 126.766 223.594 127 223.359C127.234 223.125 127.552 222.993 127.884 222.993H436.267C436.598 222.993 436.916 223.125 437.151 223.359C437.385 223.594 437.517 223.911 437.517 224.243V347.313C437.516 347.539 437.454 347.761 437.336 347.955C437.219 348.149 437.051 348.307 436.851 348.413L282.541 429.913C282.361 430.01 282.161 430.061 281.957 430.062ZM129.13 346.562L281.957 427.399L435.017 346.56V225.493H129.13V346.562Z" fill="#262626"/>
<path d="M436.267 197.834L281.957 116.335L351.298 82.912L505.608 164.412L436.267 197.834Z" fill="white"/>
<path d="M436.267 199.084C436.063 199.084 435.863 199.035 435.683 198.94L281.373 117.44C281.168 117.332 280.998 117.169 280.881 116.97C280.763 116.771 280.703 116.543 280.707 116.311C280.712 116.08 280.78 115.855 280.905 115.66C281.029 115.465 281.206 115.309 281.414 115.208L350.755 81.785C350.931 81.6995 351.125 81.6568 351.321 81.6605C351.517 81.6641 351.709 81.714 351.882 81.806L506.192 163.306C506.396 163.414 506.567 163.577 506.684 163.776C506.802 163.975 506.862 164.203 506.858 164.434C506.853 164.665 506.785 164.891 506.66 165.085C506.535 165.28 506.359 165.436 506.151 165.537L436.81 198.96C436.641 199.042 436.455 199.084 436.267 199.084ZM284.73 116.384L436.293 196.432L502.835 164.359L351.272 84.313L284.73 116.384Z" fill="#262626"/>
<path d="M127.88 197.834L282.19 116.335L212.849 82.912L58.5388 164.412L127.88 197.834Z" fill="white"/>
<path d="M127.88 199.084C127.692 199.084 127.506 199.042 127.337 198.96L57.9999 165.537C57.7916 165.436 57.6153 165.28 57.4905 165.085C57.3657 164.891 57.2974 164.665 57.2932 164.434C57.2889 164.203 57.3489 163.975 57.4664 163.776C57.584 163.577 57.7544 163.414 57.9589 163.306L212.269 81.806C212.442 81.714 212.634 81.6641 212.83 81.6605C213.026 81.6568 213.22 81.6995 213.396 81.785L282.737 115.208C282.945 115.309 283.121 115.465 283.246 115.66C283.371 115.855 283.439 116.08 283.443 116.311C283.448 116.543 283.388 116.771 283.27 116.97C283.153 117.169 282.982 117.332 282.778 117.44L128.468 198.94C128.287 199.035 128.085 199.085 127.88 199.084ZM61.3119 164.361L127.854 196.434L279.417 116.386L212.875 84.313L61.3119 164.361Z" fill="#262626"/>
<path d="M127.88 197.834L282.19 279.334L202.849 322.756L48.5389 241.257L127.88 197.834Z" fill="white"/>
<path d="M202.849 324.006C202.645 324.006 202.445 323.956 202.265 323.861L47.9549 242.361C47.7557 242.255 47.5887 242.098 47.4718 241.905C47.3548 241.712 47.2922 241.491 47.2906 241.266C47.2889 241.04 47.3483 240.818 47.4625 240.624C47.5766 240.429 47.7412 240.269 47.9389 240.161L127.28 196.738C127.461 196.639 127.664 196.586 127.871 196.584C128.078 196.583 128.281 196.633 128.464 196.73L282.774 278.23C282.973 278.336 283.14 278.493 283.257 278.686C283.374 278.879 283.437 279.1 283.438 279.325C283.44 279.551 283.38 279.772 283.266 279.967C283.152 280.161 282.988 280.321 282.79 280.43L203.449 323.853C203.265 323.953 203.059 324.006 202.849 324.006ZM51.1789 241.237L202.838 321.337L279.551 279.353L127.891 199.253L51.1789 241.237Z" fill="#262626"/>
<path d="M436.267 197.834L281.957 279.334L361.298 322.756L515.608 241.257L436.267 197.834Z" fill="white"/>
<path d="M361.3 324.006C361.09 324.006 360.884 323.953 360.7 323.853L281.359 280.43C281.161 280.321 280.997 280.161 280.882 279.967C280.768 279.772 280.709 279.551 280.711 279.325C280.712 279.1 280.775 278.879 280.892 278.686C281.009 278.493 281.176 278.336 281.375 278.23L435.685 196.73C435.867 196.633 436.071 196.583 436.278 196.584C436.485 196.586 436.688 196.639 436.869 196.738L516.21 240.161C516.408 240.269 516.572 240.429 516.686 240.624C516.8 240.818 516.86 241.04 516.858 241.266C516.857 241.491 516.794 241.712 516.677 241.905C516.56 242.098 516.393 242.255 516.194 242.361L361.884 323.861C361.704 323.956 361.503 324.006 361.3 324.006ZM284.6 279.353L361.312 321.337L512.972 241.237L436.259 199.253L284.6 279.353Z" fill="#262626"/>
<path d="M282.19 116.335L127.88 197.834L281.957 279.334L436.267 197.834L282.19 116.335Z" fill="#262626"/>
<path d="M283.207 279.333H280.707V428.812H283.207V279.333Z" fill="#262626"/>
<path d="M195.5 190.435C195.293 190.435 195.091 190.37 194.923 190.25C194.707 190.097 194.56 189.864 194.515 189.602C194.471 189.341 194.532 189.072 194.685 188.856C194.87 188.595 212.943 162.467 192.767 138.647C189.196 134.409 184.741 131.003 179.715 128.669C174.69 126.334 169.214 125.126 163.672 125.131H163.4C165.316 131.787 164.974 137.705 162.261 142.245C161.105 144.296 159.399 145.984 157.335 147.119C155.272 148.253 152.933 148.789 150.581 148.665C148.634 148.506 146.777 147.782 145.235 146.583C143.694 145.383 142.535 143.761 141.902 141.913C139.683 136.125 142.002 130.513 148.114 126.896C151.986 124.761 156.288 123.523 160.703 123.275C159.267 119.467 157.399 115.837 155.137 112.454C147.852 101.328 134.575 93.626 118.709 91.323C105.263 89.372 92.377 91.67 85.876 97.176C85.6735 97.3473 85.4112 97.4312 85.1469 97.4091C84.8826 97.3871 84.6378 97.261 84.4665 97.0585C84.2952 96.856 84.2113 96.5937 84.2333 96.3294C84.2554 96.0651 84.3815 95.8203 84.584 95.649C91.502 89.79 105.009 87.313 118.996 89.349C135.429 91.735 149.211 99.758 156.811 111.363C159.275 115.043 161.279 119.012 162.779 123.179C168.757 123.035 174.691 124.235 180.145 126.689C185.598 129.143 190.431 132.789 194.288 137.359C215.481 162.378 196.505 189.744 196.311 190.018C196.219 190.147 196.097 190.252 195.956 190.324C195.815 190.397 195.659 190.435 195.5 190.435ZM161.352 125.204C157.072 125.386 152.892 126.555 149.137 128.618C143.861 131.74 141.907 136.326 143.774 141.198C144.28 142.691 145.21 144.004 146.45 144.976C147.691 145.949 149.188 146.539 150.758 146.674C152.735 146.763 154.698 146.299 156.427 145.336C158.156 144.373 159.583 142.948 160.549 141.22C163.039 137.05 163.267 131.507 161.349 125.204H161.352Z" fill="#292A2E"/>
<path d="M68.6169 113.299C66.9176 113.81 65.0861 113.637 63.5124 112.817C61.9387 111.997 60.7471 110.595 60.1914 108.91C59.6357 107.225 59.7598 105.39 60.5372 103.795C61.3145 102.2 62.6839 100.971 64.3535 100.371C66.0232 99.7702 67.8613 99.8452 69.4765 100.58C71.0918 101.314 72.3564 102.65 73.0013 104.303C73.6462 105.956 73.6203 107.796 72.9291 109.43C72.238 111.064 70.9362 112.364 69.301 113.053C69.0776 113.147 68.8493 113.23 68.6169 113.299ZM65.2919 102.187C65.13 102.236 64.9707 102.293 64.8149 102.359C63.6644 102.844 62.7486 103.759 62.2628 104.91C61.777 106.06 61.7595 107.354 62.214 108.517C62.6685 109.681 63.5591 110.62 64.6961 111.136C65.8332 111.652 67.1268 111.704 68.3015 111.281C69.4761 110.857 70.439 109.992 70.985 108.869C71.531 107.746 71.617 106.454 71.2247 105.268C70.8324 104.083 69.9927 103.097 68.8846 102.522C67.7764 101.946 66.4874 101.826 65.2919 102.187Z" fill="#292A2E"/>
<path d="M68.605 97.629C66.9975 98.1089 65.2693 97.9778 63.7526 97.2606C62.236 96.5435 61.038 95.291 60.389 93.744C59.8686 92.5038 59.7277 91.1371 59.9841 89.8167C60.2405 88.4964 60.8826 87.2818 61.8294 86.3265C62.7761 85.3711 63.9849 84.718 65.3028 84.4497C66.6207 84.1814 67.9886 84.3099 69.2335 84.8191C70.4784 85.3282 71.5444 86.1951 72.2965 87.31C73.0487 88.425 73.4534 89.738 73.4593 91.083C73.4652 92.428 73.0722 93.7445 72.3299 94.866C71.5876 95.9876 70.5293 96.8639 69.289 97.384C69.0654 97.4775 68.8371 97.5593 68.605 97.629ZM65.284 86.516C65.1201 86.5651 64.9588 86.6229 64.801 86.689C63.6278 87.1817 62.6984 88.1201 62.2168 89.2979C61.7353 90.4757 61.7411 91.7965 62.233 92.97C62.5917 93.8254 63.1906 94.5586 63.9573 95.0808C64.7239 95.603 65.6255 95.8919 66.5528 95.9125C67.4802 95.9331 68.3937 95.6846 69.1828 95.1969C69.9719 94.7093 70.6028 94.0035 70.9992 93.1648C71.3956 92.3262 71.5405 91.3907 71.4163 90.4714C71.2922 89.5521 70.9044 88.6885 70.2998 87.985C69.6952 87.2815 68.8997 86.7683 68.0095 86.5074C67.1194 86.2465 66.1727 86.2502 65.284 86.516Z" fill="#292A2E"/>
<path d="M66.664 104.701C71.5749 104.701 75.556 102.042 75.556 98.762C75.556 95.482 71.5749 92.823 66.664 92.823C61.7531 92.823 57.772 95.482 57.772 98.762C57.772 102.042 61.7531 104.701 66.664 104.701Z" fill="white"/>
<path d="M70.5999 105.138C69.3251 105.515 68.0023 105.705 66.6729 105.702C61.1249 105.702 56.7729 102.662 56.7729 98.771C56.7729 94.88 61.1119 91.829 66.6579 91.823C69.0759 91.7766 71.4548 92.4369 73.5029 93.723C74.4228 94.2022 75.1938 94.9243 75.7321 95.8108C76.2704 96.6974 76.5556 97.7145 76.5565 98.7517C76.5574 99.7889 76.2741 100.807 75.7374 101.694C75.2006 102.582 74.431 103.305 73.512 103.786C72.6135 104.378 71.6322 104.834 70.5999 105.138ZM63.338 94.299C60.666 95.099 58.7719 96.826 58.7729 98.766C58.7729 101.443 62.3899 103.702 66.6729 103.698C68.6961 103.741 70.6879 103.193 72.4049 102.122C73.0489 101.825 73.5943 101.35 73.9764 100.753C74.3585 100.156 74.5612 99.4615 74.5606 98.7525C74.5599 98.0436 74.356 97.3496 73.9728 96.7531C73.5897 96.1565 73.0434 95.6824 72.399 95.387C70.6807 94.3183 68.6879 93.774 66.665 93.821C65.5386 93.818 64.4179 93.9791 63.338 94.299Z" fill="#292A2E"/>
<path d="M68.845 104.52L68.635 92.97L65.763 92.854L65.562 104.655L68.845 104.52Z" fill="#292A2E"/>
<path d="M54.867 101.275C55.374 101.275 55.785 100.864 55.785 100.357C55.785 99.85 55.374 99.439 54.867 99.439C54.36 99.439 53.949 99.85 53.949 100.357C53.949 100.864 54.36 101.275 54.867 101.275Z" fill="#292A2E"/>
<path d="M55.584 96.363C56.091 96.363 56.502 95.952 56.502 95.445C56.502 94.938 56.091 94.527 55.584 94.527C55.077 94.527 54.666 94.938 54.666 95.445C54.666 95.952 55.077 96.363 55.584 96.363Z" fill="#292A2E"/>
<path d="M352.625 132.765C352.411 132.765 352.202 132.696 352.03 132.569C351.858 132.442 351.732 132.263 351.669 132.058C348.352 119.672 347.467 106.76 349.063 94.037C351.648 75.437 361.906 51.026 396.093 40.337C400.903 38.7904 405.837 37.6592 410.841 36.956C412.452 26.895 418.58 15.981 432.285 8.45098C464.847 -9.44102 486.842 6.61198 487.06 6.77598C487.272 6.93511 487.412 7.17201 487.45 7.43456C487.487 7.69711 487.419 7.9638 487.26 8.17598C487.101 8.38815 486.864 8.52842 486.601 8.56593C486.339 8.60343 486.072 8.53511 485.86 8.37598C485.652 8.21998 464.632 -7.04102 433.249 10.205C420.443 17.242 414.581 27.342 412.914 36.718C427.993 35.233 435.214 40.263 438.455 44.062C440.46 46.3465 441.749 49.1706 442.16 52.1823C442.572 55.1941 442.088 58.2603 440.769 60.999C439.727 63.2126 438.037 65.058 435.924 66.2915C433.811 67.5251 431.374 68.0887 428.934 67.908C420.513 67.414 413.544 60.33 411.182 49.86C410.403 46.3157 410.195 42.6697 410.568 39.06C405.862 39.7361 401.22 40.8035 396.691 42.251C370.046 50.582 354.691 68.101 351.043 94.318C349.48 106.752 350.342 119.372 353.581 131.478C353.627 131.628 353.637 131.786 353.61 131.94C353.584 132.094 353.522 132.24 353.429 132.365C353.336 132.491 353.215 132.593 353.075 132.664C352.935 132.734 352.781 132.771 352.625 132.771V132.765ZM412.607 38.81C412.19 42.3509 412.368 45.9366 413.133 49.419C415.294 58.997 421.542 65.47 429.051 65.911C431.097 66.0576 433.141 65.5822 434.912 64.5472C436.684 63.5122 438.102 61.9658 438.979 60.111C440.122 57.7228 440.538 55.051 440.173 52.4284C439.809 49.8058 438.682 47.3483 436.931 45.362C432.255 39.875 423.722 37.659 412.607 38.81Z" fill="#292A2E"/>
<path d="M510.354 16.883C509.007 16.8802 507.688 16.4965 506.55 15.7764C505.412 15.0562 504.501 14.0289 503.921 12.813C503.342 11.5971 503.118 10.2421 503.276 8.90449C503.434 7.56687 503.967 6.30113 504.813 5.25334C505.659 4.20555 506.784 3.41844 508.059 2.98283C509.333 2.54723 510.705 2.48089 512.016 2.79149C513.326 3.10208 514.522 3.77694 515.466 4.73817C516.409 5.69941 517.062 6.90783 517.348 8.22398C517.572 9.26731 517.56 10.3475 517.313 11.3856C517.065 12.4237 516.589 13.3933 515.918 14.2234C515.248 15.0536 514.4 15.7233 513.437 16.1834C512.475 16.6436 511.421 16.8826 510.354 16.883ZM510.369 4.59898C509.305 4.59896 508.268 4.92883 507.4 5.54313C506.531 6.15743 505.875 7.02592 505.521 8.02889C505.167 9.03187 505.133 10.12 505.423 11.1432C505.713 12.1664 506.314 13.0744 507.142 13.742C507.97 14.4097 508.984 14.8041 510.046 14.8708C511.107 14.9376 512.164 14.6735 513.069 14.1149C513.974 13.5563 514.683 12.7308 515.1 11.752C515.516 10.7732 515.618 9.68942 515.393 8.64998C515.149 7.49996 514.516 6.46913 513.601 5.73122C512.686 4.99331 511.544 4.59344 510.369 4.59898Z" fill="#292A2E"/>
<path d="M507.343 33.204C505.51 33.2039 503.747 32.5011 502.417 31.2403C501.086 29.9795 500.29 28.2567 500.192 26.4265C500.093 24.5963 500.7 22.7981 501.888 21.4019C503.075 20.0058 504.753 19.118 506.575 18.9213C508.397 18.7247 510.226 19.2341 511.683 20.3448C513.141 21.4555 514.118 23.0828 514.412 24.8919C514.707 26.7009 514.296 28.554 513.266 30.0695C512.235 31.5851 510.662 32.6478 508.872 33.039C508.37 33.1486 507.857 33.204 507.343 33.204ZM507.368 20.919C506.998 20.9192 506.629 20.959 506.268 21.038C504.99 21.3185 503.869 22.078 503.135 23.1601C502.4 24.2422 502.108 25.5647 502.319 26.8554C502.53 28.1461 503.228 29.3069 504.269 30.0989C505.309 30.891 506.614 31.254 507.914 31.1133C509.215 30.9727 510.411 30.339 511.259 29.3427C512.106 28.3465 512.539 27.0633 512.469 25.7574C512.399 24.4514 511.831 23.222 510.882 22.322C509.933 21.422 508.676 20.9199 507.368 20.919Z" fill="#292A2E"/>
<path d="M518.082 19.8044C518.713 16.3888 515.078 12.8548 509.964 11.9112C504.85 10.9675 500.193 12.9715 499.563 16.3871C498.933 19.8028 502.568 23.3367 507.682 24.2804C512.796 25.224 517.452 23.2201 518.082 19.8044Z" fill="white"/>
<path d="M510.2 25.515C509.294 25.5135 508.39 25.4298 507.5 25.265C504.985 24.8477 502.646 23.7057 500.771 21.979C499.95 21.2786 499.319 20.3826 498.936 19.3737C498.553 18.3648 498.43 17.2757 498.58 16.207C498.822 15.1554 499.325 14.1818 500.043 13.376C500.761 12.5703 501.67 11.9585 502.687 11.597C505.066 10.6986 507.645 10.4676 510.145 10.929C512.646 11.3904 514.973 12.5267 516.874 14.215C517.695 14.9154 518.326 15.8114 518.709 16.8203C519.092 17.8291 519.214 18.9183 519.065 19.987C518.823 21.0386 518.32 22.0122 517.602 22.8179C516.884 23.6236 515.975 24.2355 514.958 24.597C513.45 25.221 511.832 25.5333 510.2 25.515ZM507.438 12.677C506.08 12.6597 504.733 12.9172 503.477 13.434C502.766 13.6718 502.126 14.0832 501.615 14.6307C501.103 15.1783 500.736 15.8448 500.547 16.57C500.465 17.3148 500.57 18.0684 500.852 18.7625C501.135 19.4566 501.586 20.0692 502.165 20.545C503.782 21.9568 505.75 22.9074 507.861 23.2971C509.973 23.6868 512.15 23.5013 514.165 22.76C514.876 22.5221 515.516 22.1108 516.027 21.5632C516.539 21.0156 516.906 20.3491 517.095 19.624C517.178 18.8791 517.073 18.1253 516.79 17.4312C516.508 16.737 516.056 16.1244 515.477 15.649C513.885 14.1967 511.904 13.2401 509.777 12.896C509.007 12.7525 508.225 12.6792 507.442 12.677H507.438Z" fill="#292A2E"/>
<path d="M507.668 11.681L505.657 23.747L508.624 24.423L511.112 12.174L507.668 11.681Z" fill="#292A2E"/>
<path d="M519.723 24.662C520.26 24.662 520.695 24.2268 520.695 23.69C520.695 23.1532 520.26 22.718 519.723 22.718C519.186 22.718 518.751 23.1532 518.751 23.69C518.751 24.2268 519.186 24.662 519.723 24.662Z" fill="#292A2E"/>
<path d="M521.417 19.686C521.954 19.686 522.389 19.2508 522.389 18.714C522.389 18.1772 521.954 17.742 521.417 17.742C520.88 17.742 520.445 18.1772 520.445 18.714C520.445 19.2508 520.88 19.686 521.417 19.686Z" fill="#292A2E"/>
</svg>
