<svg width="45" height="45" viewBox="0 0 45 45" fill="none" xmlns="http://www.w3.org/2000/svg">
<g id="Frame" clip-path="url(#clip0_29_215)">
<path id="Vector" d="M28.125 1.875H16.875V5.625H28.125V1.875ZM20.625 26.25H24.375V15H20.625V26.25ZM35.6813 13.8562L38.3438 11.1937C37.5375 10.2375 36.6563 9.3375 35.7 8.55L33.0375 11.2125C30.0512 8.80936 26.3331 7.49942 22.5 7.5C13.1813 7.5 5.625 15.0563 5.625 24.375C5.625 33.6938 13.1625 41.25 22.5 41.25C25.6768 41.2517 28.7895 40.3561 31.4796 38.6662C34.1697 36.9763 36.3277 34.5609 37.7052 31.6983C39.0826 28.8356 39.6235 25.6421 39.2654 22.4855C38.9073 19.3289 37.6649 16.3376 35.6813 13.8562ZM22.5 37.5C15.2438 37.5 9.375 31.6313 9.375 24.375C9.375 17.1188 15.2438 11.25 22.5 11.25C29.7563 11.25 35.625 17.1188 35.625 24.375C35.625 31.6313 29.7563 37.5 22.5 37.5Z" fill="#435EBE"/>
</g>
<defs>
<clipPath id="clip0_29_215">
<rect width="45" height="45" fill="white"/>
</clipPath>
</defs>
</svg>
