<?xml version="1.0" encoding="UTF-8" standalone="no" ?>
<!DOCTYPE svg PUBLIC "-//W3C//DTD SVG 1.1//EN" "http://www.w3.org/Graphics/SVG/1.1/DTD/svg11.dtd">
<svg xmlns="http://www.w3.org/2000/svg" xmlns:xlink="http://www.w3.org/1999/xlink" version="1.1" width="1080" height="1080" viewBox="-73.75 -47.06 1080 1080" xml:space="preserve">
<desc>Created with Fabric.js 5.2.4</desc>
<defs>
</defs>
<rect x="0" y="0" width="100%" height="100%" fill="transparent"></rect>
<g transform="matrix(1 0 0 1 540 540)" id="2a24de67-ecad-4a92-a2bc-a905bb390713"  >
<rect style="stroke: none; stroke-width: 1; stroke-dasharray: none; stroke-linecap: butt; stroke-dashoffset: 0; stroke-linejoin: miter; stroke-miterlimit: 4; fill: rgb(255,255,255); fill-rule: nonzero; opacity: 1; visibility: hidden;" vector-effect="non-scaling-stroke"  x="-540" y="-540" rx="0" ry="0" width="1080" height="1080" />
</g>
<g transform="matrix(1 0 0 1 540 540)" id="8e4f4e78-9db0-458d-ae3b-33b86ff3cfd4"  >
</g>
<g transform="matrix(1 0 0 1 255.5 298.46)"  >
<path style="stroke: none; stroke-width: 1; stroke-dasharray: none; stroke-linecap: butt; stroke-dashoffset: 0; stroke-linejoin: miter; stroke-miterlimit: 4; fill: rgb(53,197,239); fill-rule: evenodd; opacity: 1;" vector-effect="non-scaling-stroke"  transform=" translate(-407, -414.96)" d="M 642.5 114.5 C 603.853 189.422 583.853 269.088 582.5 353.5 C 581.209 353.263 580.209 353.596 579.5 354.5 C 496.35 365.818 427.517 403.152 373 466.5 C 318.02 427.684 263.187 388.684 208.5 349.5 C 208.44 348.957 208.107 348.624 207.5 348.5 C 206.168 446.666 206.168 544.666 207.5 642.5 C 212.591 653.935 217.591 665.435 222.5 677 C 214.156 694.053 205.823 711.053 197.5 728 C 196.668 728.688 196.002 728.521 195.5 727.5 C 187.32 710.315 179.32 692.982 171.5 675.5 C 176.331 665.172 181.164 654.838 186 644.5 C 186.333 540.833 186.667 437.167 187 333.5 C 330.533 255.399 474.533 178.065 619 101.5 C 626.458 106.48 634.292 110.813 642.5 114.5 Z" stroke-linecap="round" />
</g>
<g transform="matrix(1 0 0 1 661.47 178)"  >
<path style="stroke: none; stroke-width: 1; stroke-dasharray: none; stroke-linecap: butt; stroke-dashoffset: 0; stroke-linejoin: miter; stroke-miterlimit: 4; fill: rgb(53,197,239); fill-rule: evenodd; opacity: 1;" vector-effect="non-scaling-stroke"  transform=" translate(-814, -294.5)" d="M 642.5 114.5 C 778.065 186.951 913.398 259.951 1048.5 333.5 C 987.774 381.058 926.607 428.058 865 474.5 C 791.243 384.824 696.077 344.824 579.5 354.5 C 580.209 353.596 581.209 353.263 582.5 353.5 C 583.853 269.088 603.853 189.422 642.5 114.5 Z" stroke-linecap="round" />
</g>
<g transform="matrix(1 0 0 1 578.73 485.2)"  >
<path style="stroke: none; stroke-width: 1; stroke-dasharray: none; stroke-linecap: butt; stroke-dashoffset: 0; stroke-linejoin: miter; stroke-miterlimit: 4; fill: rgb(53,197,239); fill-rule: evenodd; opacity: 1;" vector-effect="non-scaling-stroke"  transform=" translate(-732.63, -601.7)" d="M 833.5 813.5 C 821.19 804.866 808.857 796.199 796.5 787.5 C 840.261 722.082 849.094 652.082 823 577.5 C 791.757 502.263 736.257 456.096 656.5 439 C 633.609 435.397 610.609 434.564 587.5 436.5 C 585.712 423.569 584.545 410.569 584 397.5 C 583.998 394.949 583.164 392.949 581.5 391.5 C 684.001 381.675 767.168 417.009 831 497.5 C 881.306 568.375 895.64 646.042 874 730.5 C 865.24 760.683 851.74 788.35 833.5 813.5 Z" stroke-linecap="round" />
</g>
<g transform="matrix(1 0 0 1 438 575.53)"  >
<path style="stroke: none; stroke-width: 1; stroke-dasharray: none; stroke-linecap: butt; stroke-dashoffset: 0; stroke-linejoin: miter; stroke-miterlimit: 4; fill: rgb(53,197,239); fill-rule: evenodd; opacity: 1;" vector-effect="non-scaling-stroke"  transform=" translate(-589.5, -692.03)" d="M 581.5 391.5 C 583.164 392.949 583.998 394.949 584 397.5 C 584.545 410.569 585.712 423.569 587.5 436.5 C 505.836 449.017 447.003 492.35 411 566.5 C 381.595 638.493 386.262 708.16 425 775.5 C 438.615 796.123 454.782 814.623 473.5 831 C 487.059 840.89 500.892 850.39 515 859.5 C 516.333 862.167 517.667 864.833 519 867.5 C 519.176 893.905 519.676 920.239 520.5 946.5 C 551.998 947.167 583.665 947.5 615.5 947.5 C 647.507 947.5 679.174 946.833 710.5 945.5 C 709.502 921.17 709.169 897.003 709.5 873 C 710.217 865.6 713.55 859.6 719.5 855 C 750.33 838.333 775.996 815.833 796.5 787.5 C 808.857 796.199 821.19 804.866 833.5 813.5 C 812.787 842.603 787.287 866.603 757 885.5 C 755.682 915.414 755.015 945.414 755 975.5 C 752.649 982.519 748.149 987.686 741.5 991 C 658.544 992.656 575.544 992.989 492.5 992 C 481.631 989.44 475.465 982.607 474 971.5 C 473.833 942.828 473.333 914.161 472.5 885.5 C 391.222 831.647 348.889 755.647 345.5 657.5 C 348.735 562.841 388.735 488.341 465.5 434 C 500.76 410.635 539.427 396.468 581.5 391.5 Z" stroke-linecap="round" />
</g>
<g transform="matrix(1 0 0 1 459.7 372.03)"  >
<path style="stroke: none; stroke-width: 1; stroke-dasharray: none; stroke-linecap: butt; stroke-dashoffset: 0; stroke-linejoin: miter; stroke-miterlimit: 4; fill: rgb(53,197,239); fill-rule: evenodd; opacity: 1;" vector-effect="non-scaling-stroke"  transform=" translate(-612.23, -488.53)" d="M 600.5 510.5 C 601.263 509.732 602.263 509.232 603.5 509 C 599.477 496.406 596.31 483.573 594 470.5 C 592.301 469.594 590.467 469.261 588.5 469.5 C 596.808 468.083 605.308 467.083 614 466.5 C 631.699 469.178 638.699 479.178 635 496.5 C 631.212 504.959 624.712 509.459 615.5 510 C 610.511 510.499 605.511 510.666 600.5 510.5 Z" stroke-linecap="round" />
</g>
<g transform="matrix(1 0 0 1 364 455.96)"  >
<path style="stroke: none; stroke-width: 1; stroke-dasharray: none; stroke-linecap: butt; stroke-dashoffset: 0; stroke-linejoin: miter; stroke-miterlimit: 4; fill: rgb(53,197,239); fill-rule: evenodd; opacity: 1;" vector-effect="non-scaling-stroke"  transform=" translate(-515.5, -572.45)" d="M 588.5 469.5 C 590.467 469.261 592.301 469.594 594 470.5 C 596.31 483.573 599.477 496.406 603.5 509 C 602.263 509.232 601.263 509.732 600.5 510.5 C 542.829 518.348 502.662 549.015 480 602.5 C 473.416 620.915 470.083 639.915 470 659.5 C 465.517 671.995 456.683 677.161 443.5 675 C 432.657 670.8 427.324 662.8 427.5 651 C 431.172 581.278 462.506 528.278 521.5 492 C 542.41 480.197 564.744 472.697 588.5 469.5 Z" stroke-linecap="round" />
</g>
<g transform="matrix(1 0 0 1 56 379)"  >
<path style="stroke: none; stroke-width: 1; stroke-dasharray: none; stroke-linecap: butt; stroke-dashoffset: 0; stroke-linejoin: miter; stroke-miterlimit: 4; fill: rgb(85,111,133); fill-rule: evenodd; opacity: 0.17;" vector-effect="non-scaling-stroke"  transform=" translate(-207.5, -495.5)" d="M 208.5 349.5 C 207.501 446.999 207.167 544.665 207.5 642.5 C 206.168 544.666 206.168 446.666 207.5 348.5 C 208.107 348.624 208.44 348.957 208.5 349.5 Z" stroke-linecap="round" />
</g>
<g transform="matrix(1 0 0 1 464 830)"  >
<path style="stroke: none; stroke-width: 1; stroke-dasharray: none; stroke-linecap: butt; stroke-dashoffset: 0; stroke-linejoin: miter; stroke-miterlimit: 4; fill: rgb(37,69,90); fill-rule: evenodd; opacity: 0.62;" vector-effect="non-scaling-stroke"  transform=" translate(-615.5, -946.5)" d="M 710.5 945.5 C 679.174 946.833 647.507 947.5 615.5 947.5 C 583.665 947.5 551.998 947.167 520.5 946.5 C 583.905 946.829 647.238 946.496 710.5 945.5 Z" stroke-linecap="round" />
</g>
<g transform="matrix(1 0 0 1 466.11 918.45)"  >
<path style="stroke: rgb(0,0,0); stroke-opacity: 0; stroke-width: 1; stroke-dasharray: none; stroke-linecap: butt; stroke-dashoffset: 0; stroke-linejoin: miter; stroke-miterlimit: 4; fill: rgb(250,147,91); fill-rule: evenodd; opacity: 1;" vector-effect="non-scaling-stroke"  transform=" translate(-613.5, -1034.95)" d="M 723.5 1012.5 C 734.368 1015.71 740.034 1023.05 740.5 1034.5 C 739.59 1044.92 734.257 1052.08 724.5 1056 C 687.537 1057.15 650.537 1057.65 613.5 1057.5 C 578.167 1057.33 542.833 1057.17 507.5 1057 C 494.238 1055.07 487.238 1047.4 486.5 1034 C 486.693 1023.99 491.36 1017.16 500.5 1013.5 C 574.811 1012.51 649.144 1012.18 723.5 1012.5 Z" stroke-linecap="round" />
</g>
<g transform="matrix(1 0 0 1 461.53 977.48)"  >
<path style="stroke: rgb(165,164,164); stroke-opacity: 0; stroke-width: 1; stroke-dasharray: none; stroke-linecap: butt; stroke-dashoffset: 0; stroke-linejoin: miter; stroke-miterlimit: 4; fill: rgb(250,147,91); fill-rule: evenodd; opacity: 1;" vector-effect="non-scaling-stroke"  transform=" translate(-613.03, -1093.97)" d="M 543.5 1070.5 C 590.168 1070.33 636.835 1070.5 683.5 1071 C 702.128 1074.43 708.961 1085.26 704 1103.5 C 698.9 1113.05 690.9 1117.72 680 1117.5 C 632.677 1116.71 585.177 1116.21 537.5 1116 C 526.974 1112.47 521.308 1105.14 520.5 1094 C 522.333 1080.33 529.999 1072.5 543.5 1070.5 Z" stroke-linecap="round" />
</g>
<g transform="matrix(0 0 0 0 0 0)"  >
<g style=""   >
</g>
</g>
<g transform="matrix(0 0 0 0 0 0)"  >
<g style=""   >
</g>
</g>
<g transform="matrix(0 0 0 0 0 0)"  >
<g style=""   >
</g>
</g>
<g transform="matrix(0 0 0 0 0 0)"  >
<g style=""   >
</g>
</g>
<g transform="matrix(0 0 0 0 0 0)"  >
<g style=""   >
</g>
</g>
<g transform="matrix(0 0 0 0 0 0)"  >
<g style=""   >
</g>
</g>
<g transform="matrix(0 0 0 0 0 0)"  >
<g style=""   >
</g>
</g>
<g transform="matrix(0 0 0 0 0 0)"  >
<g style=""   >
</g>
</g>
<g transform="matrix(NaN NaN NaN NaN 0 0)"  >
<g style=""   >
</g>
</g>
<g transform="matrix(NaN NaN NaN NaN 0 0)"  >
<g style=""   >
</g>
</g>
<g transform="matrix(NaN NaN NaN NaN 0 0)"  >
<g style=""   >
</g>
</g>
<g transform="matrix(NaN NaN NaN NaN 0 0)"  >
<g style=""   >
</g>
</g>
<g transform="matrix(NaN NaN NaN NaN 0 0)"  >
<g style=""   >
</g>
</g>
<g transform="matrix(NaN NaN NaN NaN 0 0)"  >
<g style=""   >
</g>
</g>
<g transform="matrix(NaN NaN NaN NaN 0 0)"  >
<g style=""   >
</g>
</g>
<g transform="matrix(NaN NaN NaN NaN 0 0)"  >
<g style=""   >
</g>
</g>
<g transform="matrix(NaN NaN NaN NaN 0 0)"  >
<g style=""   >
</g>
</g>
<g transform="matrix(NaN NaN NaN NaN 0 0)"  >
<g style=""   >
</g>
</g>
</svg>